<?xml version="1.0" encoding="UTF-8"?>
<svg version="1.1" xmlns="http://www.w3.org/2000/svg" width="414" height="199">
<path d="M0 0 C2.39706123 -0.10854617 4.78915838 -0.18753157 7.1875 -0.25 C7.86103516 -0.28351562 8.53457031 -0.31703125 9.22851562 -0.3515625 C12.89041975 -0.42301429 14.82150622 -0.11534178 17.92578125 1.890625 C20.93175385 4.94754629 21.1242153 6.55603377 21.11352539 10.72509766 C21.11344986 11.70596344 21.11337433 12.68682922 21.11329651 13.69741821 C21.10813522 14.75891083 21.10297394 15.82040344 21.09765625 16.9140625 C21.0962413 17.99883881 21.09482635 19.08361511 21.09336853 20.20126343 C21.08775802 23.67587 21.07520372 27.15041281 21.0625 30.625 C21.05748635 32.97656157 21.05292321 35.32812415 21.04882812 37.6796875 C21.03778518 43.45314686 21.02103679 49.22656888 21 55 C21.99 54.505 21.99 54.505 23 54 C36.79004756 53.14429299 49.68875598 54.25949326 61 63 C66.67686141 68.21524811 70.55058925 73.69044266 73 81 C73.22429687 81.63808594 73.44859375 82.27617188 73.6796875 82.93359375 C77.78270777 97.35037046 75.55018827 114.65734473 68.4921875 127.6875 C62.35043363 137.20561071 52.81931453 142.96621384 41.8125 145.375 C29.60632037 147.07859629 11.69760896 148.13173931 1 141 C0.61523914 138.55185509 0.61523914 138.55185509 0.60127258 135.40658569 C0.58246536 133.62286812 0.58246536 133.62286812 0.5632782 131.80311584 C0.56471329 130.49185226 0.56614838 129.18058868 0.56762695 127.82958984 C0.55861458 126.44014103 0.54828866 125.05070021 0.53674316 123.66127014 C0.50908497 119.88256268 0.49987679 116.1040057 0.49388909 112.32521009 C0.48452823 108.37866175 0.45832683 104.43222685 0.43388367 100.48574829 C0.39015173 93.00952661 0.36164599 85.53332685 0.33856028 78.05701602 C0.31154438 69.54678845 0.26763075 61.03667461 0.22227156 52.52652812 C0.12932947 35.01774389 0.05769266 17.50893512 0 0 Z M21 69 C21 89.46 21 109.92 21 131 C32.84174975 131 39.8256629 130.97417752 48.2734375 123.03125 C55.71409249 114.27753824 55.62602175 102.88830684 55 92 C53.30195738 82.43602467 48.80902352 75.69703761 41 70 C33.96565372 66.21227508 28.44348862 66.87328896 21 69 Z " fill="#2B2A45" transform="translate(137,0)"/>
<path d="M0 0 C3.37483413 -0.08767555 6.74937215 -0.14061628 10.125 -0.1875 C11.07632813 -0.21263672 12.02765625 -0.23777344 13.0078125 -0.26367188 C18.39080902 -0.31974476 22.48323552 -0.27431103 27 3 C30.83662956 7.93398397 32.64800299 13.11121146 34.58203125 19.01171875 C34.91287216 19.99600357 35.24371307 20.98028839 35.58457947 21.99440002 C36.29658578 24.11554947 37.00463109 26.23803183 37.70910645 28.36169434 C39.59209232 34.03731664 41.50376681 39.70329953 43.41015625 45.37109375 C43.79634125 46.52219635 44.18252625 47.67329895 44.58041382 48.85928345 C47.92088598 58.80526851 51.35358195 68.7171993 54.82672119 78.61752319 C56.3533136 82.97018359 57.87352852 87.32507137 59.39453125 91.6796875 C59.99169146 93.38900011 60.58885943 95.09831 61.18603516 96.80761719 C61.63127533 98.08227844 61.63127533 98.08227844 62.08551025 99.38269043 C62.70658135 101.16022302 63.32797105 102.93764433 63.949646 104.71496582 C65.82893272 110.08895559 67.70049539 115.46551678 69.56091309 120.84606934 C70.13909618 122.51411267 70.72001061 124.18121211 71.30383301 125.84729004 C72.10429698 128.13274707 72.89509901 130.42132842 73.68359375 132.7109375 C73.92027267 133.37964874 74.1569516 134.04835999 74.40080261 134.73733521 C75.60525112 138.27118717 76.26463543 141.26297286 76 145 C60.01617735 145.59856201 60.01617735 145.59856201 55 142 C51.59584362 136.02392532 49.58425193 129.19387464 47.41796875 122.6953125 C47.08667465 121.71395828 46.75538055 120.73260406 46.41404724 119.72151184 C45.70363412 117.61628169 44.99505073 115.51043335 44.28814697 113.40402222 C42.41103637 107.81177735 40.51984577 102.22429985 38.62890625 96.63671875 C38.24478577 95.50087845 37.86066528 94.36503815 37.46490479 93.19477844 C32.97778771 79.94707425 28.361974 66.7448083 23.73510742 53.54541016 C23.43750015 52.69597336 23.13989288 51.84653656 22.83326721 50.97135925 C22.28720859 49.41355793 21.7404396 47.85600529 21.19273376 46.29878235 C20.45666779 44.20094231 19.72753584 42.10081195 19 40 C18.7190448 39.20006622 18.4380896 38.40013245 18.14862061 37.57595825 C17.8731842 36.77689056 17.5977478 35.97782288 17.31396484 35.15454102 C16.93659683 34.06919823 16.93659683 34.06919823 16.55160522 32.96192932 C16 31 16 31 16 28 C15.34 28 14.68 28 14 28 C13.73807861 29.28173096 13.47615723 30.56346191 13.20629883 31.8840332 C12.06305323 37.01483835 10.45173605 41.90463293 8.69921875 46.85546875 C8.38096634 47.76073807 8.06271393 48.66600739 7.7348175 49.59870911 C7.06445242 51.49805807 6.39116757 53.39637883 5.71508789 55.29370117 C4.68820861 58.18550447 3.68080973 61.08363951 2.67382812 63.98242188 C2.01680977 65.8363578 1.35864543 67.68988808 0.69921875 69.54296875 C0.25517952 70.83221504 0.25517952 70.83221504 -0.1978302 72.14750671 C-2.07626045 77.34073803 -4.08763957 81.06353 -8 85 C-11.56045177 86.18681726 -14.43808337 86.09689832 -18.1875 86.0625 C-20.09595703 86.04896484 -20.09595703 86.04896484 -22.04296875 86.03515625 C-23.01878906 86.02355469 -23.99460937 86.01195313 -25 86 C-24.39816314 80.28397819 -22.88451199 75.28839812 -20.9375 69.89453125 C-20.47610374 68.59020142 -20.47610374 68.59020142 -20.00538635 67.25952148 C-19.34813664 65.40221347 -18.68823797 63.54584107 -18.02590942 61.69033813 C-16.30098288 56.85164646 -14.60242029 52.00371713 -12.90234375 47.15625 C-12.5656517 46.19725296 -12.22895966 45.23825592 -11.88206482 44.25019836 C-9.03469713 36.12807974 -6.244575 27.99069477 -3.5625 19.8125 C-3.19189453 18.71204346 -2.82128906 17.61158691 -2.43945312 16.4777832 C-0.58481592 10.74827898 0.41126087 6.02461101 0 0 Z " fill="#2C2B45" transform="translate(45,0)"/>
<path d="M0 0 C7.27370196 5.97049703 11.33417617 14.11534197 12.625 23.3125 C12.7072882 25.31295628 12.74289688 27.31572785 12.73852539 29.31787109 C12.73841209 31.05899673 12.73841209 31.05899673 12.73829651 32.83529663 C12.73313522 34.07300812 12.72797394 35.3107196 12.72265625 36.5859375 C12.7212413 37.86481842 12.71982635 39.14369934 12.71836853 40.46133423 C12.71373022 43.84461336 12.70476081 47.22782386 12.69366455 50.61108398 C12.68339515 54.07014374 12.67885911 57.52921061 12.67382812 60.98828125 C12.66281609 67.76303966 12.64609064 74.53776587 12.625 81.3125 C-3.12964642 87.75502686 -25.53641574 89.39871068 -41.640625 83.57421875 C-49.13716804 80.11509961 -56.37164726 74.29678655 -59.51171875 66.484375 C-61.47732974 59.26231107 -61.46790587 51.75853799 -58.375 44.875 C-53.75467905 36.95628326 -47.02149408 33.4462941 -38.359375 30.99609375 C-28.58740612 28.99217641 -17.12316601 29.33717147 -7.375 31.3125 C-7.53475558 24.22516171 -8.51351107 18.6961949 -13.375 13.3125 C-19.41741587 8.64889044 -25.90931508 7.56203298 -33.375 8.3125 C-39.09515307 9.40570274 -44.73686075 10.86250782 -50.375 12.3125 C-52.49949225 7.62300398 -53.7605608 4.58183092 -53.375 -0.6875 C-52.04583439 -1.32131508 -50.71135391 -1.94398484 -49.375 -2.5625 C-48.6325 -2.91054688 -47.89 -3.25859375 -47.125 -3.6171875 C-32.2900181 -9.39102989 -13.3959728 -9.00590681 0 0 Z M-38.8125 48.3125 C-41.40704018 51.63351143 -41.84641793 55.01611816 -41.77734375 59.18359375 C-41.00722294 63.25850485 -38.52586516 65.76757045 -35.375 68.3125 C-26.52659917 73.6442287 -16.93676358 71.22485272 -7.375 69.3125 C-7.375 61.3925 -7.375 53.4725 -7.375 45.3125 C-23.9115224 41.84004411 -23.9115224 41.84004411 -38.8125 48.3125 Z " fill="#2C2B45" transform="translate(324.375,59.6875)"/>
<path d="M0 0 C18.81 0 37.62 0 57 0 C55.080538 8.63757899 52.59826107 16.76797972 49.734375 25.10253906 C49.16147082 26.78414305 48.59927347 28.46943285 48.04785156 30.15820312 C42.0134884 48.62722902 42.0134884 48.62722902 34 53 C31.07081707 53.97639431 29.20974262 54.12136181 26.16137695 54.11352539 C24.69019157 54.11341209 24.69019157 54.11341209 23.18928528 54.11329651 C22.13295395 54.10813522 21.07662262 54.10297394 19.98828125 54.09765625 C18.36323921 54.09553383 18.36323921 54.09553383 16.70536804 54.09336853 C13.24105075 54.08776559 9.7767978 54.07521258 6.3125 54.0625 C3.96549572 54.05748538 1.61849044 54.05292241 -0.72851562 54.04882812 C-6.48569908 54.03779521 -12.24284494 54.0210542 -18 54 C-17.3138438 48.63161364 -15.70407671 43.78025971 -13.9453125 38.69140625 C-13.64309784 37.80645981 -13.34088318 36.92151337 -13.0295105 36.00975037 C-12.39121759 34.1439972 -11.75063711 32.27902526 -11.10791016 30.41479492 C-10.1300871 27.57726218 -9.16017873 24.73711816 -8.19140625 21.89648438 C-7.56817642 20.07796451 -6.94449336 18.2595999 -6.3203125 16.44140625 C-6.0327005 15.59953262 -5.7450885 14.757659 -5.44876099 13.89027405 C-5.03350662 12.6888401 -5.03350662 12.6888401 -4.60986328 11.46313477 C-4.37083282 10.76841568 -4.13180237 10.07369659 -3.88552856 9.35792542 C-2.69807013 6.19604161 -1.33046596 3.10442056 0 0 Z " fill="#D73236" transform="translate(18,90)"/>
<path d="M0 0 C0.83474854 0.00016113 1.66949707 0.00032227 2.52954102 0.00048828 C11.3483117 0.16149207 19.0940849 2.25859775 26.9375 6.375 C26.82307539 7.97995567 26.69555306 9.58398119 26.5625 11.1875 C26.49289062 12.08082031 26.42328125 12.97414063 26.3515625 13.89453125 C25.9375 16.375 25.9375 16.375 23.9375 19.375 C21.99963915 18.89729477 20.06222326 18.41778429 18.125 17.9375 C17.04605469 17.67066406 15.96710938 17.40382813 14.85546875 17.12890625 C12.8634157 16.61422588 10.88938476 16.02562825 8.9375 15.375 C0.35551337 14.50346017 0.35551337 14.50346017 -7.375 17.5625 C-9.15088835 20.2129547 -9.15088835 20.2129547 -9.6875 22.875 C-7.87484593 30.12561627 1.08903906 33.74175828 6.9375 37.375 C29.60871436 51.47766104 29.60871436 51.47766104 32.6875 64.5625 C33.20364344 72.43368746 31.66869739 78.60094699 26.55859375 84.69140625 C19.70642566 91.80775432 10.62303414 93.51577756 1.0625 93.75 C-8.38255156 93.51180243 -19.97268072 92.40507362 -27.0625 85.375 C-28.15620205 82.86158855 -28.15548646 81.69666827 -27.390625 79.05078125 C-27.03484375 78.27089844 -26.6790625 77.49101562 -26.3125 76.6875 C-25.96703125 75.89988281 -25.6215625 75.11226563 -25.265625 74.30078125 C-24.0625 72.375 -24.0625 72.375 -21.0625 71.375 C-18.3203125 72.3359375 -18.3203125 72.3359375 -15.1875 73.75 C-8.27895581 76.84932183 -1.31650364 78.8839353 6.1953125 76.7265625 C8.40065759 75.80174037 10.10974701 74.91843586 11.9375 73.375 C13.43358434 69.98624962 13.43358434 69.98624962 12.9375 66.375 C9.65982086 60.84738857 4.197782 58.27529647 -1.1875 55.125 C-24.52886266 41.0474394 -24.52886266 41.0474394 -27.68359375 29.00390625 C-28.81248163 21.54393583 -27.26285451 14.86521749 -23.25 8.5 C-16.31250558 1.76071971 -9.35140449 -0.01685781 0 0 Z " fill="#2C2B45" transform="translate(381.0625,52.625)"/>
<path d="M0 0 C5.28 0 10.56 0 16 0 C20.08301919 4.08301919 20.45726157 4.59582554 20.49768066 9.95535278 C20.48329956 10.74513519 20.46891846 11.5349176 20.45410156 12.34863281 C20.45468567 13.18802399 20.45526978 14.02741516 20.45587158 14.89224243 C20.45308786 17.66295929 20.42198277 20.43259641 20.390625 23.203125 C20.38316362 25.12554334 20.3774702 27.04796929 20.37347412 28.97039795 C20.35820967 34.0274764 20.31892075 39.0840945 20.2746582 44.14099121 C20.23372306 49.30226413 20.21546685 54.4636115 20.1953125 59.625 C20.15242725 69.75023468 20.08207065 79.87500702 20 90 C13.73 90 7.46 90 1 90 C0.67 60.3 0.34 30.6 0 0 Z " fill="#2C2B45" transform="translate(227,54)"/>
<path d="M0 0 C3.60133296 2.52859548 5.22281431 4.66706914 6 8.9375 C6.25424769 13.02087191 5.42805788 15.63204875 3 19 C-0.36795125 21.42805788 -2.97912809 22.25424769 -7.0625 22 C-11.33293086 21.22281431 -13.47140452 19.60133296 -16 16 C-17.37051098 11.86292958 -17.26677596 8.83171328 -15.9375 4.6875 C-11.81972598 -1.02425106 -6.46331666 -2.14113988 0 0 Z " fill="#2B2A44" transform="translate(243,17)"/>
<path d="M0 0 C1.32 0 2.64 0 4 0 C7 6.625 7 6.625 7 10 C7.66 10 8.32 10 9 10 C9.66 7.03 10.32 4.06 11 1 C12.65 0.67 14.3 0.34 16 0 C16 5.94 16 11.88 16 18 C15.01 18 14.02 18 13 18 C12.67 15.36 12.34 12.72 12 10 C11.01 12.31 10.02 14.62 9 17 C8.01 16.67 7.02 16.34 6 16 C4.8125 13.4375 4.8125 13.4375 4 11 C3.67 13.31 3.34 15.62 3 18 C2.01 18 1.02 18 0 18 C0 12.06 0 6.12 0 0 Z " fill="#2B2A43" transform="translate(250,180)"/>
<path d="M0 0 C0.99 0.33 1.98 0.66 3 1 C2.34 2.32 1.68 3.64 1 5 C1.804375 5.495 2.60875 5.99 3.4375 6.5 C6.45883668 9.44764554 6.81260701 10.96125208 7.0703125 15.0390625 C6.93423847 18.83401588 5.82042642 21.08841509 3.3125 23.875 C-0.10144385 25.53583755 -2.38757223 24.91952707 -6 24 C-7.875 22.9375 -7.875 22.9375 -9 21 C-10.03247787 16.07587479 -10.68653389 12.47755648 -8 8 C-6.69084721 6.96854629 -5.35917857 5.96457834 -4 5 C-3.67 4.01 -3.34 3.02 -3 2 C-2.01 1.34 -1.02 0.68 0 0 Z M-4.6875 9 C-6.75892672 12.15645977 -6.56351951 15.33712322 -6 19 C-4.93281702 21.15565917 -4.93281702 21.15565917 -3 22 C-0.02602384 21.72963853 0.85446026 21.14553974 3 19 C3.57821009 13.70482344 3.57821009 13.70482344 1.6875 9 C-0.7011437 7.58450744 -2.2988563 7.58450744 -4.6875 9 Z " fill="#2A2942" transform="translate(293,174)"/>
<path d="M0 0 C0.33 1.32 0.66 2.64 1 4 C-1.64 3.67 -4.28 3.34 -7 3 C-4.83334926 5.32714339 -3.11616608 6.94191696 -0.25 8.375 C2 10 2 10 2.5625 13 C2 16 2 16 0.4375 17.9375 C-2.99904013 19.43547903 -5.39990307 18.80002154 -9 18 C-9.66 17.67 -10.32 17.34 -11 17 C-11 16.01 -11 15.02 -11 14 C-8.36 14.33 -5.72 14.66 -3 15 C-2.67 14.01 -2.34 13.02 -2 12 C-2.94875 11.54625 -3.8975 11.0925 -4.875 10.625 C-8 9 -8 9 -10 7 C-9.625 3.375 -9.625 3.375 -9 0 C-5.52176885 -1.15941038 -3.54104422 -0.70820884 0 0 Z " fill="#292941" transform="translate(406,180)"/>
<path d="M0 0 C3.96 0 7.92 0 12 0 C12 0.66 12 1.32 12 2 C9.36 2 6.72 2 4 2 C4 3.65 4 5.3 4 7 C5.98 7 7.96 7 10 7 C10 7.99 10 8.98 10 10 C8.02 10 6.04 10 4 10 C4 11.98 4 13.96 4 16 C6.64 16 9.28 16 12 16 C12 16.66 12 17.32 12 18 C8.04 18 4.08 18 0 18 C0 12.06 0 6.12 0 0 Z " fill="#2C2B45" transform="translate(345,180)"/>
<path d="M0 0 C1.32 0 2.64 0 4 0 C4.50559908 1.43554025 5.0042749 2.8735202 5.5 4.3125 C5.7784375 5.11300781 6.056875 5.91351563 6.34375 6.73828125 C7 9 7 9 7 12 C7.66 12 8.32 12 9 12 C9.12375 10.948125 9.2475 9.89625 9.375 8.8125 C9.91140782 5.54041229 10.63880035 2.99463924 12 0 C12.99 0 13.98 0 15 0 C13.9007105 6.31121503 12.41862058 12.06338584 10 18 C8.68 18 7.36 18 6 18 C4.02 12.06 2.04 6.12 0 0 Z " fill="#2A2942" transform="translate(314,180)"/>
<path d="M0 0 C1.32 0 2.64 0 4 0 C4 5.94 4 11.88 4 18 C2.68 18 1.36 18 0 18 C0 12.06 0 6.12 0 0 Z " fill="#2B2A44" transform="translate(374,180)"/>
<path d="M0 0 C0.99 0 1.98 0 3 0 C3 5.94 3 11.88 3 18 C2.01 18 1.02 18 0 18 C0 12.06 0 6.12 0 0 Z " fill="#2C2B45" transform="translate(228,180)"/>
</svg>
