<?xml version="1.0" standalone="no"?><!-- Generator: Gravit.io --><svg xmlns="http://www.w3.org/2000/svg" xmlns:xlink="http://www.w3.org/1999/xlink" style="isolation:isolate" viewBox="0 0 255.12 141.73" width="255.12" height="141.73"><defs><clipPath id="_clipPath_MEOEQeGdn18DhzcL9uj3XExomPw3aUMP"><rect width="255.12" height="141.73"/></clipPath></defs><g clip-path="url(#_clipPath_MEOEQeGdn18DhzcL9uj3XExomPw3aUMP)"><path d=" M 42.214 32.992 L 62.496 32.992 L 62.496 37.482 L 42.214 43.091 L 42.214 34.113 L 42.214 32.992 Z " fill="rgb(86,134,196)"/><clipPath id="_clipPath_tIJdc4XfbgvH1ZIMhxVHWPll6CH0Mf57"><path d=" M 0 0 L 255.12 0 L 255.12 141.73 L 0 141.73 L 0 0 Z " fill="rgb(255,255,255)"/></clipPath><g clip-path="url(#_clipPath_tIJdc4XfbgvH1ZIMhxVHWPll6CH0Mf57)"><path d=" M 120.508 18.448 L 203.847 56.405 C 203.847 56.405 209.683 59.664 211.368 60.15 C 213.055 60.642 230.361 63.761 231.949 63.749 C 235.438 64.059 243.218 61.784 233.058 57.547 C 222.898 53.309 191.78 41.015 182.255 38.04 C 172.737 35.063 120.508 18.448 120.508 18.448 Z " fill="rgb(86,134,196)"/><path d=" M 127.491 24.965 C 127.491 24.965 58.754 40.851 49.703 43.091 C 40.657 45.328 19.857 52.334 17.795 53.634 C 15.732 54.938 9.067 59.012 17.795 59.34 C 26.529 59.664 67.171 61.129 90.188 60.967 C 113.207 60.805 199.788 59.988 199.788 59.988 L 194.445 57.547 C 194.445 57.547 92.743 55.142 76.339 53.472 C 76.339 53.472 56.685 52.661 74.627 44.514 C 92.568 36.367 127.491 24.965 127.491 24.965 Z " fill="rgb(86,134,196)"/><path d=" M 210.622 120.617 L 211.57 120.49 C 211.6 121.076 211.715 121.472 211.919 121.689 C 212.121 121.902 212.403 122.01 212.766 122.01 C 213.033 122.01 213.259 121.953 213.448 121.842 C 213.643 121.719 213.776 121.562 213.85 121.365 C 213.915 121.168 213.956 120.847 213.956 120.414 L 213.956 115.166 L 215.02 115.166 L 215.02 120.349 C 215.02 120.984 214.942 121.48 214.777 121.832 C 214.614 122.178 214.362 122.447 214.006 122.631 C 213.652 122.812 213.242 122.902 212.774 122.902 C 212.067 122.902 211.533 122.717 211.159 122.33 C 210.781 121.943 210.609 121.371 210.622 120.617 Z  M 206.918 119.556 L 209.96 119.556 L 209.96 120.49 L 206.918 120.49 L 206.918 119.556 Z  M 201.816 120.58 C 201.816 120.847 201.878 121.109 202.01 121.353 C 202.141 121.603 202.338 121.799 202.601 121.931 C 202.863 122.068 203.151 122.14 203.451 122.14 C 203.928 122.14 204.31 121.998 204.618 121.709 C 204.917 121.422 205.069 121.056 205.069 120.615 C 205.069 120.166 204.913 119.791 204.604 119.5 C 204.288 119.201 203.894 119.053 203.419 119.053 C 202.954 119.053 202.567 119.201 202.268 119.492 C 201.969 119.783 201.816 120.146 201.816 120.58 Z  M 202.136 117.066 C 202.136 117.426 202.264 117.721 202.503 117.947 C 202.744 118.178 203.06 118.293 203.456 118.293 C 203.837 118.293 204.144 118.178 204.384 117.953 C 204.626 117.726 204.748 117.445 204.748 117.117 C 204.748 116.773 204.622 116.486 204.379 116.252 C 204.129 116.015 203.821 115.9 203.447 115.9 C 203.065 115.9 202.753 116.015 202.507 116.244 C 202.264 116.472 202.136 116.744 202.136 117.066 Z  M 202.338 118.654 C 201.927 118.51 201.628 118.306 201.426 118.047 C 201.228 117.781 201.135 117.469 201.135 117.097 C 201.135 116.543 201.341 116.08 201.758 115.701 C 202.177 115.326 202.732 115.135 203.43 115.135 C 204.129 115.135 204.691 115.33 205.115 115.717 C 205.541 116.099 205.756 116.568 205.756 117.123 C 205.756 117.472 205.656 117.787 205.459 118.047 C 205.269 118.31 204.975 118.51 204.572 118.654 C 205.065 118.806 205.438 119.049 205.693 119.39 C 205.951 119.724 206.079 120.133 206.079 120.601 C 206.079 121.256 205.837 121.799 205.348 122.24 C 204.868 122.685 204.231 122.902 203.447 122.902 C 202.654 122.902 202.018 122.685 201.536 122.24 C 201.052 121.791 200.807 121.238 200.807 120.572 C 200.807 120.08 200.937 119.666 201.2 119.332 C 201.472 118.994 201.845 118.773 202.338 118.654 Z  M 198.288 122.777 L 197.304 122.777 L 197.304 116.822 C 197.069 117.035 196.757 117.25 196.37 117.469 C 195.988 117.681 195.64 117.842 195.336 117.947 L 195.336 117.045 C 195.886 116.803 196.37 116.502 196.78 116.154 C 197.191 115.803 197.483 115.463 197.655 115.135 L 198.288 115.135 L 198.288 122.777 Z  M 188.369 120.781 L 189.405 120.699 C 189.478 121.179 189.65 121.537 189.931 121.781 C 190.213 122.017 190.547 122.14 190.945 122.14 C 191.421 122.14 191.828 121.969 192.148 121.629 C 192.476 121.291 192.633 120.846 192.633 120.281 C 192.633 119.746 192.48 119.328 192.169 119.017 C 191.856 118.713 191.446 118.56 190.936 118.56 C 190.612 118.56 190.328 118.625 190.074 118.765 C 189.828 118.902 189.627 119.084 189.483 119.299 L 188.554 119.172 L 189.327 115.262 L 193.299 115.262 L 193.299 116.154 L 190.111 116.154 L 189.681 118.211 C 190.161 117.888 190.665 117.728 191.195 117.728 C 191.89 117.728 192.48 117.961 192.958 118.416 C 193.434 118.879 193.681 119.472 193.681 120.195 C 193.681 120.885 193.467 121.478 193.047 121.976 C 192.534 122.597 191.833 122.902 190.945 122.902 C 190.218 122.902 189.622 122.713 189.162 122.322 C 188.702 121.931 188.439 121.418 188.369 120.781 Z  M 185.81 121.713 L 186.928 121.713 L 186.928 122.777 L 185.81 122.777 L 185.81 121.713 Z  M 180.036 120.58 C 180.036 120.847 180.101 121.109 180.234 121.353 C 180.361 121.603 180.562 121.799 180.825 121.931 C 181.088 122.068 181.376 122.14 181.676 122.14 C 182.143 122.14 182.538 121.998 182.842 121.709 C 183.142 121.422 183.294 121.056 183.294 120.615 C 183.294 120.166 183.138 119.791 182.825 119.5 C 182.514 119.201 182.119 119.053 181.639 119.053 C 181.175 119.053 180.792 119.201 180.492 119.492 C 180.188 119.783 180.036 120.146 180.036 120.58 Z  M 180.361 117.066 C 180.361 117.426 180.484 117.721 180.726 117.947 C 180.969 118.178 181.285 118.293 181.68 118.293 C 182.062 118.293 182.373 118.178 182.612 117.953 C 182.854 117.726 182.973 117.445 182.973 117.117 C 182.973 116.773 182.847 116.486 182.6 116.252 C 182.357 116.015 182.041 115.9 181.663 115.9 C 181.285 115.9 180.973 116.015 180.726 116.244 C 180.484 116.472 180.361 116.744 180.361 117.066 Z  M 180.558 118.654 C 180.151 118.51 179.851 118.306 179.65 118.047 C 179.454 117.781 179.354 117.469 179.354 117.097 C 179.354 116.543 179.564 116.08 179.984 115.701 C 180.398 115.326 180.957 115.135 181.654 115.135 C 182.353 115.135 182.916 115.33 183.339 115.717 C 183.766 116.099 183.976 116.568 183.976 117.123 C 183.976 117.472 183.881 117.787 183.685 118.047 C 183.491 118.31 183.194 118.51 182.801 118.654 C 183.29 118.806 183.663 119.049 183.917 119.39 C 184.173 119.724 184.304 120.133 184.304 120.601 C 184.304 121.256 184.062 121.799 183.576 122.24 C 183.088 122.685 182.456 122.902 181.663 122.902 C 180.879 122.902 180.242 122.685 179.758 122.24 C 179.269 121.791 179.03 121.238 179.03 120.572 C 179.03 120.08 179.161 119.666 179.429 119.332 C 179.691 118.994 180.073 118.773 180.558 118.654 Z  M 176.517 122.777 L 175.527 122.777 L 175.527 116.822 C 175.293 117.035 174.98 117.25 174.595 117.469 C 174.209 117.681 173.86 117.842 173.556 117.947 L 173.556 117.045 C 174.11 116.803 174.59 116.502 175.002 116.154 C 175.412 115.803 175.704 115.463 175.876 115.135 L 176.517 115.135 L 176.517 122.777 Z  M 167.169 115.166 L 168.237 115.166 L 168.237 122.777 L 167.169 122.777 L 167.169 115.166 Z  M 164.623 120.109 L 165.684 120.363 C 165.46 121.187 165.059 121.822 164.482 122.252 C 163.913 122.687 163.201 122.902 162.367 122.902 C 161.51 122.902 160.808 122.736 160.266 122.404 C 159.726 122.068 159.311 121.584 159.033 120.953 C 158.749 120.322 158.614 119.64 158.614 118.916 C 158.614 118.129 158.77 117.435 159.086 116.842 C 159.411 116.254 159.863 115.805 160.45 115.5 C 161.034 115.191 161.683 115.041 162.389 115.041 C 163.185 115.041 163.863 115.232 164.404 115.619 C 164.956 116.006 165.334 116.551 165.551 117.256 L 164.509 117.488 C 164.328 116.933 164.053 116.531 163.698 116.279 C 163.35 116.025 162.901 115.9 162.367 115.9 C 161.757 115.9 161.242 116.041 160.828 116.322 C 160.417 116.601 160.126 116.974 159.957 117.451 C 159.789 117.92 159.711 118.412 159.711 118.91 C 159.711 119.556 159.805 120.121 160.007 120.601 C 160.2 121.086 160.513 121.451 160.932 121.685 C 161.347 121.924 161.801 122.045 162.287 122.045 C 162.878 122.045 163.379 121.879 163.785 121.554 C 164.196 121.228 164.476 120.75 164.623 120.109 Z  M 151.476 122.777 L 151.476 115.166 L 157.255 115.166 L 157.255 116.058 L 152.536 116.058 L 152.536 118.4 L 156.955 118.4 L 156.955 119.291 L 152.536 119.291 L 152.536 121.883 L 157.448 121.883 L 157.448 122.777 L 151.476 122.777 Z  M 144.457 118.525 L 146.733 118.525 C 147.218 118.525 147.591 118.478 147.866 118.379 C 148.141 118.287 148.347 118.137 148.481 117.926 C 148.627 117.713 148.7 117.488 148.7 117.238 C 148.7 116.885 148.559 116.584 148.29 116.353 C 148.015 116.121 147.578 116.006 146.983 116.006 L 144.457 116.006 L 144.457 118.525 Z  M 143.389 122.777 L 143.389 115.166 L 146.941 115.166 C 147.661 115.166 148.199 115.236 148.572 115.373 C 148.942 115.51 149.242 115.75 149.463 116.096 C 149.686 116.441 149.793 116.822 149.793 117.238 C 149.793 117.781 149.608 118.238 149.242 118.607 C 148.872 118.978 148.306 119.213 147.537 119.312 C 147.817 119.439 148.03 119.566 148.179 119.693 C 148.486 119.961 148.781 120.299 149.053 120.699 L 150.44 122.777 L 149.115 122.777 L 148.056 121.193 C 147.747 120.732 147.489 120.385 147.296 120.14 C 147.09 119.898 146.913 119.73 146.757 119.635 C 146.597 119.541 146.437 119.472 146.272 119.435 C 146.149 119.41 145.956 119.398 145.682 119.398 L 144.457 119.398 L 144.457 122.777 L 143.389 122.777 Z  M 140.995 120.109 L 142.063 120.363 C 141.834 121.187 141.438 121.822 140.859 122.252 C 140.289 122.687 139.582 122.902 138.748 122.902 C 137.886 122.902 137.184 122.736 136.642 122.404 C 136.101 122.068 135.692 121.584 135.414 120.953 C 135.13 120.322 134.991 119.64 134.991 118.916 C 134.991 118.129 135.143 117.435 135.467 116.842 C 135.783 116.254 136.235 115.805 136.822 115.5 C 137.414 115.191 138.063 115.041 138.766 115.041 C 139.566 115.041 140.239 115.232 140.785 115.619 C 141.332 116.006 141.706 116.551 141.923 117.256 L 140.885 117.488 C 140.7 116.933 140.433 116.531 140.079 116.279 C 139.723 116.025 139.282 115.9 138.744 115.9 C 138.133 115.9 137.619 116.041 137.208 116.322 C 136.793 116.601 136.502 116.974 136.338 117.451 C 136.17 117.92 136.083 118.412 136.083 118.91 C 136.083 119.556 136.185 120.121 136.379 120.601 C 136.58 121.086 136.885 121.451 137.304 121.685 C 137.718 121.924 138.174 122.045 138.658 122.045 C 139.254 122.045 139.755 121.879 140.161 121.554 C 140.572 121.228 140.856 120.75 140.995 120.109 Z " fill="rgb(86,134,196)"/><path d=" M 111.825 100.349 L 114.489 100.349 L 114.489 110.432 L 111.825 110.432 L 111.825 100.349 Z  M 111.825 96.661 L 114.489 96.661 L 114.489 99.14 L 111.825 99.14 L 111.825 96.661 Z " fill="rgb(59,99,172)"/><path d=" M 134.409 110.432 L 134.409 104.325 C 134.409 103.71 134.264 103.211 133.977 102.828 C 133.692 102.447 133.309 102.255 132.831 102.255 C 132.339 102.255 131.932 102.46 131.612 102.87 C 131.29 103.28 131.13 103.792 131.13 104.407 L 131.13 110.432 L 128.466 110.432 L 128.466 104.366 C 128.466 103.956 128.438 103.621 128.384 103.362 C 128.329 103.103 128.237 102.898 128.106 102.747 C 127.977 102.597 127.809 102.491 127.604 102.429 C 127.399 102.368 127.153 102.337 126.867 102.337 C 125.787 102.337 125.248 102.993 125.248 104.304 L 125.248 110.432 L 122.584 110.432 L 122.584 100.349 L 125.084 100.349 L 125.084 101.825 C 125.426 101.156 125.835 100.698 126.314 100.452 C 126.792 100.205 127.366 100.082 128.036 100.082 C 128.376 100.082 128.68 100.111 128.948 100.164 C 129.214 100.219 129.452 100.312 129.665 100.442 C 129.876 100.572 130.077 100.739 130.268 100.944 C 130.46 101.149 130.651 101.395 130.843 101.681 C 131.116 101.121 131.477 100.715 131.929 100.462 C 132.38 100.209 132.927 100.082 133.569 100.082 C 134.073 100.082 134.538 100.168 134.962 100.339 C 135.386 100.51 135.747 100.748 136.048 101.056 C 136.348 101.364 136.585 101.722 136.755 102.132 C 136.927 102.542 137.011 102.98 137.011 103.444 L 137.011 110.432 L 134.409 110.432 Z " fill="rgb(59,99,172)"/><path d=" M 148.631 99.079 L 147.995 97.952 L 152.237 95.473 L 153.201 97.153 L 148.631 99.079 Z  M 150.004 108.465 C 151.63 108.465 152.443 107.44 152.443 105.391 C 152.443 103.355 151.63 102.338 150.004 102.338 C 148.378 102.338 147.566 103.355 147.566 105.391 C 147.566 107.44 148.378 108.465 150.004 108.465 Z  M 150.004 110.699 C 149.185 110.699 148.453 110.569 147.812 110.309 C 147.169 110.05 146.626 109.688 146.182 109.224 C 145.738 108.759 145.4 108.199 145.168 107.543 C 144.935 106.888 144.819 106.17 144.819 105.391 C 144.819 104.599 144.939 103.875 145.178 103.219 C 145.417 102.563 145.762 102.003 146.213 101.538 C 146.663 101.074 147.207 100.716 147.842 100.463 C 148.478 100.21 149.197 100.083 150.004 100.083 C 150.796 100.083 151.507 100.21 152.136 100.463 C 152.764 100.716 153.3 101.07 153.744 101.528 C 154.188 101.986 154.529 102.543 154.769 103.198 C 155.008 103.854 155.127 104.585 155.127 105.391 C 155.127 106.197 155.008 106.925 154.769 107.574 C 154.529 108.223 154.188 108.779 153.744 109.244 C 153.3 109.709 152.761 110.067 152.125 110.32 C 151.489 110.572 150.782 110.699 150.004 110.699 Z " fill="rgb(59,99,172)"/><path d=" M 165.456 110.432 L 161.85 100.349 L 164.821 100.349 L 166.932 107.009 L 169.063 100.349 L 171.871 100.349 L 168.243 110.432 L 165.456 110.432 Z " fill="rgb(59,99,172)"/><path d=" M 185.458 104.407 C 185.444 104.039 185.379 103.714 185.263 103.434 C 185.146 103.154 184.993 102.922 184.802 102.737 C 184.61 102.553 184.393 102.416 184.146 102.327 C 183.9 102.239 183.647 102.194 183.388 102.194 C 182.855 102.194 182.395 102.388 182.005 102.778 C 181.615 103.168 181.394 103.711 181.339 104.407 L 185.458 104.407 Z  M 181.257 106.088 C 181.298 106.853 181.52 107.461 181.923 107.912 C 182.325 108.362 182.855 108.588 183.511 108.588 C 183.948 108.588 184.334 108.489 184.669 108.291 C 185.004 108.093 185.219 107.816 185.314 107.461 L 188.061 107.461 C 187.746 108.5 187.2 109.299 186.421 109.858 C 185.643 110.419 184.713 110.699 183.634 110.699 C 180.273 110.699 178.593 108.868 178.593 105.207 C 178.593 104.428 178.702 103.724 178.921 103.095 C 179.139 102.468 179.456 101.928 179.873 101.476 C 180.29 101.026 180.799 100.681 181.4 100.442 C 182.001 100.203 182.691 100.083 183.47 100.083 C 185.027 100.083 186.206 100.582 187.005 101.579 C 187.805 102.577 188.204 104.08 188.204 106.088 L 181.257 106.088 Z " fill="rgb(59,99,172)"/><path d=" M 196.053 100.349 L 198.717 100.349 L 198.717 110.432 L 196.053 110.432 L 196.053 100.349 Z  M 196.053 96.661 L 198.717 96.661 L 198.717 99.14 L 196.053 99.14 L 196.053 96.661 Z " fill="rgb(59,99,172)"/><path d=" M 212.877 103.403 C 212.809 102.939 212.635 102.6 212.355 102.388 C 212.074 102.177 211.648 102.071 211.074 102.071 C 210.527 102.071 210.114 102.136 209.834 102.265 C 209.554 102.396 209.414 102.618 209.414 102.931 C 209.414 103.205 209.554 103.424 209.834 103.588 C 210.114 103.752 210.521 103.909 211.054 104.059 C 211.928 104.304 212.665 104.513 213.267 104.684 C 213.867 104.855 214.35 105.056 214.711 105.289 C 215.073 105.521 215.333 105.811 215.49 106.16 C 215.648 106.507 215.726 106.976 215.726 107.563 C 215.726 108.465 215.35 109.213 214.599 109.807 C 213.847 110.402 212.733 110.699 211.258 110.699 C 210.534 110.699 209.878 110.617 209.291 110.453 C 208.703 110.289 208.201 110.053 207.784 109.746 C 207.367 109.438 207.047 109.069 206.821 108.639 C 206.596 108.209 206.477 107.727 206.463 107.194 L 209.209 107.194 C 209.209 107.673 209.397 108.042 209.773 108.301 C 210.148 108.56 210.637 108.69 211.237 108.69 C 211.743 108.69 212.177 108.612 212.539 108.455 C 212.901 108.298 213.082 108.055 213.082 107.727 C 213.082 107.358 212.949 107.091 212.683 106.928 C 212.416 106.764 212.01 106.621 211.463 106.498 C 210.48 106.279 209.687 106.05 209.086 105.811 C 208.484 105.572 208.017 105.309 207.682 105.022 C 207.348 104.735 207.122 104.421 207.006 104.08 C 206.89 103.738 206.832 103.355 206.832 102.931 C 206.832 102.549 206.91 102.187 207.067 101.845 C 207.225 101.505 207.474 101.204 207.815 100.944 C 208.156 100.684 208.601 100.476 209.148 100.319 C 209.693 100.162 210.363 100.083 211.155 100.083 C 212.604 100.083 213.663 100.377 214.332 100.965 C 215.001 101.552 215.37 102.365 215.439 103.403 L 212.877 103.403 Z " fill="rgb(59,99,172)"/><path d=" M 44.789 73.041 L 56.371 73.041 L 56.371 69.41 C 56.371 69.41 56.799 64.899 51.922 64.735 C 47.047 64.569 43.883 64.408 42.949 64.403 C 42.203 64.403 36.535 64.351 34.131 64.637 C 31.719 64.915 28.768 65.779 28.717 71.387 C 28.664 77 28.717 85.354 28.717 85.354 C 28.717 85.354 28.139 89.621 34.019 90.087 C 37.021 90.327 41.795 90.327 41.795 90.327 L 50.476 90.093 C 50.476 90.093 56.391 90.417 56.377 84.92 L 56.371 79.422 L 44.789 79.527 L 44.789 85.574 C 44.789 85.574 44.725 87.229 42.533 87.229 C 40.342 87.229 40.4 86.845 40.4 85.795 C 40.4 84.753 40.453 68.697 40.453 68.697 C 40.453 68.697 40.062 67.042 42.533 66.988 C 45.01 66.932 44.685 68.307 44.685 68.749 C 44.685 69.188 44.789 73.041 44.789 73.041 Z " fill="rgb(237,55,56)"/><path d=" M 76.199 84.999 L 76.199 84.999 C 76.199 86.228 75.226 87.229 74.033 87.229 C 73.424 87.229 72.885 86.978 72.49 86.571 C 72.094 86.171 71.861 85.616 71.861 84.999 L 71.861 69.824 C 71.861 68.592 72.826 67.593 74.033 67.593 C 74.629 67.593 75.168 67.843 75.562 68.249 C 75.951 68.65 76.199 69.207 76.199 69.824 L 76.199 84.999 Z  M 87.676 69.409 C 87.676 69.409 88.103 64.899 83.22 64.731 C 78.344 64.572 75.187 64.403 74.254 64.403 C 73.508 64.403 67.84 64.351 65.428 64.63 C 63.015 64.916 60.072 65.785 60.021 71.386 C 59.963 76.999 60.021 85.353 60.021 85.353 C 60.021 85.353 59.443 89.62 65.324 90.083 C 68.32 90.327 73.099 90.327 73.099 90.327 L 81.781 90.093 C 81.781 90.093 87.687 90.421 87.681 84.919 L 87.676 79.413 L 87.676 69.409 Z " fill="rgb(237,55,56)"/><path d=" M 208.311 84.999 L 208.311 84.999 C 208.311 86.228 207.343 87.229 206.151 87.229 C 205.54 87.229 205.004 86.978 204.608 86.571 C 204.212 86.171 203.973 85.616 203.973 84.999 L 203.973 69.824 C 203.973 68.592 204.938 67.593 206.151 67.593 C 206.748 67.593 207.285 67.843 207.682 68.249 C 208.064 68.65 208.311 69.207 208.311 69.824 L 208.311 84.999 Z  M 219.793 69.409 C 219.793 69.409 220.221 64.899 215.337 64.731 C 210.462 64.572 207.305 64.403 206.366 64.403 C 205.62 64.403 199.959 64.351 197.546 64.63 C 195.135 64.916 192.192 65.785 192.133 71.386 C 192.075 76.999 192.133 85.353 192.133 85.353 C 192.133 85.353 191.563 89.62 197.436 90.083 C 200.439 90.327 205.211 90.327 205.211 90.327 L 213.892 90.093 C 213.892 90.093 219.813 90.421 219.799 84.919 L 219.793 79.413 L 219.793 69.409 Z " fill="rgb(237,55,56)"/><path d=" M 92.09 65.152 L 92.09 90.327 L 102.317 90.327 L 102.317 78.696 C 102.317 78.696 102.356 76.509 103.334 78.603 C 104.313 80.704 109.248 90.327 109.248 90.327 L 119.065 90.327 L 119.065 65.152 L 108.936 65.152 L 108.936 76.191 C 108.936 76.191 108.58 77.782 107.6 75.87 C 106.621 73.954 102.272 65.152 102.272 65.152 L 92.09 65.152 Z " fill="rgb(237,55,56)"/><path d=" M 144.223 65.149 L 144.223 68.207 L 139.022 68.207 L 139.022 90.327 L 127.598 90.327 L 127.598 68.207 L 121.645 68.207 L 121.645 65.149 L 144.223 65.149 Z " fill="rgb(237,55,56)"/><path d=" M 190.123 65.149 L 190.123 68.207 L 184.922 68.207 L 184.922 90.327 L 173.504 90.327 L 173.504 68.207 L 167.551 68.207 L 167.551 65.149 L 190.123 65.149 Z " fill="rgb(237,55,56)"/><path d=" M 154.928 81.708 L 154.928 81.708 L 156.885 70.443 L 158.838 81.708 L 154.928 81.708 Z  M 163.11 65.149 L 148.93 65.149 L 142.75 90.327 L 153.469 90.327 L 154.576 84.581 L 159.239 84.581 L 160.485 90.327 L 171.106 90.327 L 163.11 65.149 Z " fill="rgb(237,55,56)"/></g></g></svg>