<?xml version="1.0" encoding="UTF-8"?>
<svg version="1.1" xmlns="http://www.w3.org/2000/svg" width="1468" height="426">
<path d="M0 0 C2.31237959 -0.00243101 4.62475813 -0.00615332 6.93713379 -0.01106262 C13.19141972 -0.02043442 19.44554812 -0.01107646 25.69982171 0.00226951 C32.26311263 0.01362783 38.82639628 0.00947301 45.38969421 0.00752258 C56.41265327 0.0060993 67.43555396 0.0176225 78.45849609 0.03613281 C89.76906191 0.05512081 101.0795561 0.06222289 112.39013672 0.05664062 C126.05905518 0.04991426 139.727926 0.05325953 153.39684105 0.0657444 C158.60099056 0.07037019 163.80512062 0.071273 169.00927162 0.06915855 C175.14809706 0.0672642 181.28683158 0.07546724 187.42563629 0.09121895 C189.66885947 0.09543396 191.91209192 0.09633129 194.15531731 0.09352875 C220.88605151 0.06521827 245.20328581 2.52222667 265.11987305 22.37231445 C265.81983398 23.04907227 266.51979492 23.72583008 267.2409668 24.4230957 C283.59075182 41.3465574 286.7342915 63.58154232 286.45581055 86.14575195 C285.79126302 107.18609543 277.23922313 124.97189601 262.11987305 139.37231445 C248.17181945 152.30999667 229.78602473 157.56600121 211.11987305 158.37231445 C221.00616404 170.79738108 231.05614541 183.09083943 241.11987305 195.37231445 C242.62001586 197.20553093 244.12001387 199.03886591 245.61987305 200.87231445 C246.36237305 201.77981445 247.10487305 202.68731445 247.86987305 203.62231445 C254.61987305 211.87231445 254.61987305 211.87231445 256.88549805 214.6418457 C258.33284356 216.41054241 259.78072605 218.17879988 261.22924805 219.9465332 C266.26788755 226.09771902 271.28941176 232.26261062 276.2956543 238.44018555 C278.81962801 241.55263894 281.34981781 244.65842789 283.91674805 247.7355957 C284.7262793 248.70883789 285.53581055 249.68208008 286.36987305 250.68481445 C287.42948242 251.94745117 287.42948242 251.94745117 288.51049805 253.2355957 C290.11987305 255.37231445 290.11987305 255.37231445 291.11987305 258.37231445 C282.44451973 258.674967 273.77101006 258.90520557 265.09150982 259.04587269 C261.05991012 259.11342869 257.03194725 259.20484373 253.00244141 259.35302734 C249.10523825 259.49543073 245.21150482 259.5722282 241.31189919 259.60571861 C239.83278574 259.62954414 238.35384014 259.67608057 236.87622643 259.74680519 C225.65775294 260.26187441 225.65775294 260.26187441 221.43368912 257.11687851 C217.77559442 253.59320062 214.97058113 249.55588997 212.11987305 245.37231445 C210.75958226 243.65224563 209.38763642 241.94119696 207.99487305 240.24731445 C207.36194336 239.44938477 206.72901367 238.65145508 206.0769043 237.8293457 C202.47282654 233.30446564 198.78910215 228.84438342 195.11987305 224.37231445 C193.61958988 222.53921284 192.11958897 220.70588018 190.61987305 218.87231445 C189.87737305 217.96481445 189.13487305 217.05731445 188.36987305 216.12231445 C181.61987305 207.87231445 181.61987305 207.87231445 179.35424805 205.1027832 C177.90690253 203.3340865 176.45902004 201.56582902 175.01049805 199.7980957 C170.53406249 194.33325011 166.0728323 188.85628923 161.61987305 183.37231445 C156.46744082 177.02735553 151.314426 170.68288464 146.11987305 164.37231445 C145.52282059 163.34814423 144.92576813 162.323974 144.31062317 161.26876831 C142.42546737 159.03886318 141.38402641 158.42863629 138.49374962 157.81238174 C135.00635686 157.59062079 131.56230543 157.56530256 128.06787109 157.59936523 C126.72723107 157.59119064 125.38660489 157.58038602 124.04600525 157.56715393 C120.41389848 157.53873832 116.78269912 157.5470622 113.15054679 157.56202173 C109.35212492 157.57140534 105.55392398 157.54694791 101.75556946 157.52609253 C94.56621046 157.49175387 87.37716955 157.48781453 80.18774492 157.49481761 C70.47037912 157.50252431 60.75321049 157.46323019 51.03592968 157.42657852 C35.73045426 157.37008755 20.42566023 157.37635772 5.11987305 157.37231445 C5.11987305 190.70231445 5.11987305 224.03231445 5.11987305 258.37231445 C-13.03012695 258.37231445 -31.18012695 258.37231445 -49.88012695 258.37231445 C-49.96838249 228.7493437 -50.04221072 199.12644961 -50.08438827 169.50338183 C-50.08939083 166.00257984 -50.09456815 162.50177813 -50.09985352 159.00097656 C-50.10090276 158.30405812 -50.101952 157.60713968 -50.10303304 156.8891025 C-50.12041719 145.61886806 -50.15194383 134.34871561 -50.18873814 123.07852974 C-50.22620309 111.50602299 -50.2480753 99.93356394 -50.25648093 88.36099941 C-50.26169056 81.86431486 -50.27391468 75.367816 -50.30304718 68.87119102 C-50.33026309 62.75220398 -50.33855933 56.63347854 -50.33255768 50.51443672 C-50.33365514 48.27275037 -50.34157189 46.03105497 -50.35694885 43.78942108 C-50.51731327 19.19870473 -50.51731327 19.19870473 -43.50512695 9.93481445 C-31.54860683 -1.73702662 -15.55983175 -0.05737554 0 0 Z M5.11987305 51.37231445 C5.11987305 69.85231445 5.11987305 88.33231445 5.11987305 107.37231445 C32.06700327 107.48523404 59.01394158 107.57731773 85.9612484 107.63137531 C98.47368217 107.65714365 110.98595838 107.69226829 123.49829102 107.74951172 C134.4055729 107.79938826 145.31274066 107.83161542 156.22013342 107.84275693 C161.99417287 107.84926839 167.76788584 107.86454422 173.54182053 107.90096474 C178.98043353 107.93499105 184.41858665 107.94535385 189.85729599 107.93785286 C191.84946698 107.93922442 193.84165391 107.94911706 195.8337326 107.96834183 C210.33988108 108.45134729 210.33988108 108.45134729 223.11987305 102.37231445 C228.83041394 95.93958113 232.14108315 87.94570303 232.43237305 79.30981445 C231.68027719 69.8334067 229.48006764 61.92405256 222.05737305 55.49731445 C216.78001137 51.67964856 213.16474577 51.08480417 206.66644287 51.13180542 C205.80547918 51.13009657 204.94451548 51.12838772 204.05746198 51.12662709 C201.16769968 51.12332845 198.27816871 51.13434209 195.38842773 51.14526367 C193.31889857 51.1458277 191.24936901 51.14551138 189.17984009 51.14437866 C183.55625444 51.14380384 177.93275376 51.15557914 172.30918789 51.16952658 C166.43417731 51.18201234 160.55916487 51.18320273 154.68414307 51.18557739 C143.55656052 51.1917985 132.42901719 51.20821786 121.30145192 51.22827637 C108.63413285 51.25061575 95.96681192 51.26162387 83.29947805 51.27166724 C57.23958296 51.29258353 31.17974163 51.32926766 5.11987305 51.37231445 Z " fill="#2F67A1" transform="translate(49.880126953125,1.627685546875)"/>
<path d="M0 0 C1.6224373 -0.00299724 3.2448739 -0.00640106 4.86730957 -0.01017761 C9.24982005 -0.01896513 13.63231096 -0.02135353 18.0148294 -0.0219934 C20.76048657 -0.02270698 23.50613886 -0.02484712 26.25179482 -0.02749062 C35.85227394 -0.03672725 45.45273923 -0.04082768 55.05322266 -0.04003906 C63.96679842 -0.03943899 72.88031353 -0.04998133 81.79387397 -0.06578273 C89.475778 -0.07890975 97.15766234 -0.08422079 104.8395775 -0.08358365 C109.41463599 -0.08333015 113.98964053 -0.08609919 118.56468773 -0.0967617 C122.87315289 -0.10652984 127.18151349 -0.10646295 131.4899826 -0.09924507 C133.05916054 -0.09820991 134.62834529 -0.10049746 136.19751167 -0.10660553 C160.36444212 -0.19448264 181.76975213 4.1786892 200.77270508 20.14526367 C201.86518555 21.01924805 201.86518555 21.01924805 202.97973633 21.91088867 C218.85997286 35.14905433 228.79636733 53.77976157 231.77270508 74.14526367 C232.48129984 82.58228779 232.33749476 91.0646811 232.30395508 99.52416992 C232.30665706 101.9501918 232.31054532 104.37621262 232.31555176 106.80223083 C232.32141241 111.8593081 232.31299444 116.91610065 232.29418945 121.97314453 C232.27139026 128.4137133 232.28455192 134.85361543 232.30847931 141.29415989 C232.32301998 146.29514984 232.31829374 151.29598498 232.30796814 156.2969799 C232.3053243 158.67013569 232.30848679 161.04330613 232.31788635 163.41644478 C232.40252327 190.77851043 226.67850268 213.35045776 207.08520508 233.39526367 C188.5479285 251.68951879 166.31825792 258.62415921 140.75195312 258.54931641 C138.97305882 258.55503113 137.19416818 258.56199962 135.4152832 258.57011414 C130.6196235 258.5879407 125.82414782 258.58689686 121.02846503 258.58117175 C117.0080466 258.57806405 112.98766271 258.58418995 108.96724921 258.5902105 C99.47309088 258.60422019 89.9790226 258.60272465 80.48486328 258.59130859 C70.72876712 258.57983594 60.97294614 258.59389691 51.21688622 258.62070507 C42.80538376 258.64294311 34.39396717 258.64948111 25.98243743 258.64362866 C20.97418835 258.6402766 15.96611549 258.64255641 10.95789146 258.65987968 C6.24381401 258.6754762 1.53014042 258.67125415 -3.18392181 258.65257454 C-4.90103522 258.64892326 -6.61817942 258.65189432 -8.33526421 258.66246033 C-22.40011494 258.74231253 -36.01220509 257.18492264 -48.60229492 250.33276367 C-49.59350342 249.8134729 -49.59350342 249.8134729 -50.60473633 249.28369141 C-70.92312187 238.41924057 -87.47274854 221.24139994 -94.64916992 199.03198242 C-97.50773568 189.16410665 -98.37787698 179.48382849 -98.37255859 169.2578125 C-98.37591721 168.31338287 -98.37927582 167.36895325 -98.38273621 166.39590454 C-98.39217344 163.29802099 -98.39418578 160.20019192 -98.39526367 157.10229492 C-98.39848167 154.92909219 -98.40184614 152.75588967 -98.40534973 150.58268738 C-98.41132324 146.03444924 -98.4131915 141.48623006 -98.41259766 136.93798828 C-98.41249623 131.14286978 -98.42613643 125.34787433 -98.44336987 119.55278492 C-98.4545525 115.06489008 -98.45651493 110.57702439 -98.45598793 106.08911705 C-98.45715908 103.95433822 -98.46153161 101.81955842 -98.4693203 99.68479347 C-98.56426019 70.97227293 -94.01920905 47.08241918 -73.24682617 26.07495117 C-51.98520273 5.25136435 -29.02347357 -0.01075876 0 0 Z M-37.84259796 62.90115452 C-42.50569433 70.45840173 -43.82042598 78.23269032 -43.74487305 86.96582031 C-43.75188232 87.98524216 -43.7588916 89.004664 -43.76611328 90.05497742 C-43.78356444 93.3887442 -43.77211698 96.72164613 -43.75854492 100.05541992 C-43.76124332 102.39228985 -43.76512862 104.72915867 -43.7701416 107.06602478 C-43.77601906 111.94874833 -43.76752927 116.83117797 -43.7487793 121.71386719 C-43.72597858 127.95342658 -43.73913175 134.19229805 -43.76306915 140.43183231 C-43.77756355 145.2524478 -43.77290459 150.07290175 -43.76255798 154.89352226 C-43.75990144 157.19348674 -43.76312245 159.49346617 -43.7724762 161.79341316 C-43.78270306 165.01403469 -43.76705477 168.23356102 -43.74487305 171.45410156 C-43.75296997 172.39204559 -43.76106689 173.32998962 -43.76940918 174.2963562 C-43.64921306 183.77784468 -40.68666131 191.41362128 -34.15307617 198.32495117 C-27.0595043 205.03003128 -21.09122546 208.37818167 -11.09469604 208.42614746 C-10.39974883 208.43208971 -9.70480162 208.43803195 -8.9887954 208.44415426 C-6.67224954 208.46142495 -4.35591164 208.46453585 -2.03930664 208.4675293 C-0.37317977 208.47679314 1.29294289 208.48684347 2.95906067 208.49761963 C7.47796048 208.52380289 11.99680094 208.53674522 16.51576471 208.54564095 C19.34312766 208.5515139 22.17047459 208.55972574 24.99782944 208.56864929 C33.8558307 208.59598438 42.71379513 208.61532398 51.57183564 208.62305307 C61.77492033 208.63200622 71.97746804 208.66706989 82.18038952 208.72505426 C90.08128063 208.76838695 97.98202122 208.78846694 105.88302982 208.79113531 C110.59517462 208.79322468 115.30681416 208.80489402 120.01883316 208.84077454 C124.45633094 208.87390822 128.8929484 208.87796569 133.33052635 208.86049652 C134.95097283 208.85896475 136.57146832 208.86752221 138.19179344 208.88741302 C149.28690794 209.01552778 158.67248846 207.71309584 167.23158455 199.90097809 C175.81128527 190.94467602 177.92395945 182.50884719 177.91796875 170.44897461 C177.92132736 169.47759048 177.92468597 168.50620636 177.92814636 167.50538635 C177.93763827 164.29679075 177.93959872 161.08824744 177.94067383 157.87963867 C177.94388806 155.64390034 177.94725226 153.40816221 177.95075989 151.17242432 C177.95674706 146.48514315 177.95860025 141.79788042 177.95800781 137.1105957 C177.95790631 131.11757467 177.97154781 125.12467244 177.98878002 119.13167953 C177.99992447 114.51273053 178.00192625 109.89381001 178.00139809 105.27484894 C178.00257492 103.06616049 178.00698002 100.85747124 178.01473045 98.64879608 C178.02457788 95.55215761 178.02163332 92.45577384 178.015625 89.35913086 C178.02124451 88.45491898 178.02686401 87.55070709 178.03265381 86.61909485 C177.97801117 75.48111528 175.60053172 67.35840117 167.88208008 59.12963867 C158.64911472 50.47827743 149.02246213 50.69684617 137.08227539 50.70947266 C135.38629494 50.70048675 133.69032061 50.6902766 131.99435425 50.67893982 C127.40322652 50.65251865 122.8122667 50.64540965 118.22107029 50.64349246 C115.34778934 50.64135516 112.47455064 50.63494124 109.60128021 50.62700081 C99.56334234 50.59927223 89.52552373 50.58699202 79.48754883 50.58935547 C70.15341536 50.59115657 60.81980272 50.55951811 51.48580098 50.51212448 C43.45322212 50.47280273 35.42081282 50.45680778 27.38813853 50.4587217 C22.59891724 50.45948394 17.81015904 50.45108202 13.02103424 50.41918755 C8.5129008 50.38998224 4.00566797 50.39001505 -0.50249863 50.41173744 C-2.1487371 50.4148552 -3.79503327 50.40790437 -5.44117355 50.38965607 C-18.11677188 50.25833955 -29.56891631 52.30672921 -37.84259796 62.90115452 Z " fill="#2F67A1" transform="translate(466.227294921875,1.854736328125)"/>
<path d="M0 0 C1.16827312 -0.00085442 2.33654624 -0.00170885 3.54022157 -0.00258917 C6.7556903 -0.00394357 9.97111797 -0.00084859 13.18658185 0.0041889 C16.66428447 0.00853065 20.14198537 0.00704434 23.61968994 0.00628662 C29.63601758 0.00576374 35.65233432 0.00888588 41.66865921 0.01452446 C50.36712137 0.02267145 59.06557829 0.02525795 67.76404385 0.02651245 C81.87869945 0.02869795 95.99334925 0.03534441 110.10800171 0.04481506 C123.81438162 0.05400218 137.52075996 0.06107665 151.22714233 0.06532288 C152.07282184 0.0655856 152.91850135 0.06584832 153.78980751 0.06611901 C158.0325774 0.0674241 162.27534729 0.06868779 166.51811719 0.06993091 C201.68398778 0.08028789 236.84985163 0.09789253 272.01571655 0.12025452 C271.33326705 3.07156742 270.56794884 5.06469602 268.7852478 7.52650452 C268.31884888 8.17804504 267.85244995 8.82958557 267.37191772 9.50086975 C266.86249634 10.20026672 266.35307495 10.8996637 265.82821655 11.62025452 C264.73650718 13.1419858 263.64538625 14.66413937 262.55477905 16.18666077 C261.97889038 16.98732971 261.40300171 17.78799866 260.80966187 18.6129303 C257.73969587 22.90369659 254.72340616 27.23187915 251.70321655 31.55775452 C248.34808807 36.35533315 248.34808807 36.35533315 246.71245766 38.56521416 C244.94285298 41.03289354 244.94285298 41.03289354 243.99924278 43.73109627 C242.41976934 47.17396681 241.09072775 48.85643404 238.01571655 51.12025452 C230.35815089 53.14827721 221.98338229 52.39758819 214.13925171 52.28382874 C211.66023805 52.28432215 209.18122185 52.28927063 206.70222473 52.29833984 C201.36628371 52.30826976 196.03176901 52.28793451 190.69612503 52.24048996 C182.97217413 52.17221742 175.24901946 52.16317968 167.52481012 52.16913582 C154.97924484 52.17758139 142.43416511 52.14440998 129.88876343 52.08216858 C117.72699456 52.02197388 105.56529453 51.97130016 93.40341187 51.94056702 C92.28023858 51.93771424 92.28023858 51.93771424 91.13437493 51.93480383 C82.95363442 51.91451407 74.77290061 51.89940034 66.59213829 51.89177132 C65.87238471 51.89109649 65.15263112 51.89042166 64.41106682 51.88972638 C61.53308748 51.88713305 58.65510837 51.88465072 55.77712838 51.8828894 C47.36400793 51.87769137 38.95131702 51.8563255 30.53834377 51.80521901 C24.63397854 51.76995429 18.7296638 51.75380815 12.82519722 51.74435616 C10.40687813 51.73691296 7.98856879 51.72252677 5.5703373 51.70063972 C2.26523882 51.67153327 -1.03903226 51.66714209 -4.34423828 51.66856384 C-5.29765779 51.65398223 -6.2510773 51.63940061 -7.2333883 51.62437713 C-16.1785551 51.67716042 -23.57673907 54.70484387 -30.05321693 60.93153477 C-36.26051046 67.96703864 -37.7256697 76.22851071 -37.6312561 85.30799866 C-37.6400177 86.36643478 -37.6487793 87.42487091 -37.6578064 88.51538086 C-37.679633 91.97915361 -37.66530736 95.44162732 -37.64834595 98.90541077 C-37.65171861 101.33196251 -37.65657497 103.7585126 -37.6628418 106.18505859 C-37.6701903 111.25615109 -37.65957134 116.32680152 -37.63613892 121.39784241 C-37.60763802 127.87965825 -37.62407769 134.36043941 -37.65400124 140.84221745 C-37.67211544 145.84815186 -37.66629736 150.85384312 -37.65336227 155.85978508 C-37.65004049 158.24906476 -37.65407182 160.63836692 -37.66576004 163.02762032 C-37.6785378 166.37297231 -37.6589934 169.71667496 -37.6312561 173.06190491 C-37.64137726 174.03725189 -37.65149841 175.01259888 -37.66192627 176.01750183 C-37.51812401 185.43567701 -33.74346596 193.51127606 -26.98428345 200.12025452 C-20.75216774 204.43401539 -15.7169627 207.23524179 -8.07237625 207.25891972 C-7.07861111 207.26439416 -6.08484597 207.2698686 -5.06096673 207.27550894 C-3.97147973 207.27648705 -2.88199273 207.27746515 -1.75949097 207.2784729 C-0.60042795 207.28341088 0.55863507 207.28834885 1.75282121 207.29343647 C4.97043111 207.30615037 8.18801763 207.31443427 11.40564513 207.32086313 C14.87528582 207.32886958 18.34490454 207.34256652 21.81452942 207.35557556 C27.82604027 207.37733482 33.83755334 207.39548133 39.84908295 207.4111805 C48.54076637 207.43388413 57.23242548 207.46202628 65.92408827 207.49149977 C80.02542108 207.53916962 94.12676382 207.58243546 108.2281189 207.62294006 C121.92702 207.66229807 135.62591226 207.70372503 149.32479858 207.74794006 C150.59120187 207.75202647 150.59120187 207.75202647 151.88318905 207.75619543 C156.11859879 207.76987496 160.35400839 207.78359523 164.58941793 207.79733574 C199.73149916 207.91129099 234.87359911 208.01810246 270.01571655 208.12025452 C268.42614503 212.26667503 266.46803743 215.71088015 264.01571655 219.42494202 C263.62334808 220.02180817 263.23097961 220.61867432 262.82672119 221.23362732 C261.56071797 223.15706664 260.28838779 225.07622215 259.01571655 226.99525452 C258.1483472 228.30980584 257.28132284 229.62458487 256.41464233 230.93959045 C254.32250361 234.11146157 252.225118 237.2798144 250.12521362 240.44654846 C248.60485561 242.74004925 247.08791424 245.0358063 245.57040405 247.33119202 C244.67772764 248.67791274 243.78456394 250.02431071 242.89071655 251.37025452 C242.49626343 251.9643512 242.1018103 252.55844788 241.69540405 253.17054749 C239.138917 256.99705407 239.138917 256.99705407 238.01571655 258.12025452 C236.64849418 258.22024068 235.27615667 258.2513128 233.90528679 258.25447559 C233.01383016 258.25893344 232.12237354 258.26339128 231.20390308 258.26798421 C230.21318306 258.26779985 229.22246303 258.26761549 228.20172119 258.26742554 C227.15789374 258.27110223 226.1140663 258.27477891 225.03860772 258.27856702 C221.51127847 258.28965402 217.98397863 258.29345627 214.45663452 258.29725647 C211.93898422 258.30351771 209.42133486 258.3101642 206.90368652 258.31716919 C199.32220473 258.33644216 191.74072809 258.34700842 184.15922803 258.35589698 C180.58680426 258.36027887 177.01438198 258.36564632 173.44195938 258.37088585 C161.55920914 258.38790902 149.67645983 258.4023986 137.79369926 258.40963459 C134.707386 258.41154446 131.62107275 258.41346478 128.53475952 258.41542053 C127.76768107 258.41590427 127.00060262 258.41638801 126.21027936 258.41688641 C113.81116571 258.42516924 101.41214909 258.45047157 89.01307772 258.48300121 C76.27434191 258.51614814 63.53565522 258.53409064 50.79687607 258.53727883 C43.64840639 258.53943799 36.50007776 258.5480979 29.35165024 258.57374001 C22.61622148 258.59784447 15.88108914 258.60122493 9.14561081 258.59097862 C6.68146421 258.59048478 4.21730487 258.59676011 1.75319672 258.61053467 C-11.11005521 258.67837921 -22.7836294 258.51461575 -34.98428345 254.12025452 C-36.07515825 253.73188573 -37.16603306 253.34351694 -38.28996468 252.9433794 C-50.16190632 248.52253374 -60.02124456 240.93563213 -68.98428345 232.12025452 C-69.75643188 231.3609967 -70.52858032 230.60173889 -71.3241272 229.81947327 C-86.25300004 214.22709496 -93.31546551 193.67497976 -93.25894165 172.2872467 C-93.26405258 171.26610275 -93.26916351 170.2449588 -93.27442932 169.19287109 C-93.28821429 165.85089591 -93.28737666 162.50912958 -93.2850647 159.16712952 C-93.28895823 156.81981837 -93.29329424 154.47250792 -93.29804993 152.12519836 C-93.30548872 147.21646334 -93.30523824 142.30780026 -93.29995728 137.39906311 C-93.29417149 131.14442481 -93.31108388 124.8900835 -93.33430195 118.63549423 C-93.34911813 113.78983369 -93.3499002 108.94424333 -93.34679222 104.09856415 C-93.34730166 101.79435387 -93.35246756 99.49013927 -93.36260414 97.18595123 C-93.47364627 68.41295645 -87.51751268 46.17525489 -66.98428345 25.12025452 C-66.40033813 24.46283264 -65.81639282 23.80541077 -65.2147522 23.12806702 C-48.56625064 4.83578935 -23.5532186 -0.06376683 0 0 Z " fill="#2F67A1" transform="translate(832.9842834472656,1.8797454833984375)"/>
<path d="M0 0 C6.34871268 4.29860754 10.85144994 10.10875048 14.9765625 16.48046875 C15.46432663 17.21841171 15.95209076 17.95635468 16.45463562 18.71665955 C17.50797672 20.31211422 18.55762636 21.91001109 19.60391235 23.51010132 C21.87982563 26.9904904 24.17365854 30.45894 26.46656799 33.92814636 C27.67792301 35.76107447 28.88838957 37.59459003 30.0980072 39.42866516 C36.04220879 48.43426869 42.0850441 57.37184388 48.1366272 66.30548096 C60.07846961 83.94009199 71.86676689 101.67162851 83.55786133 119.47338867 C84.68308041 121.18670266 85.80832426 122.90000038 86.93359375 124.61328125 C87.48475861 125.45255661 88.03592346 126.29183197 88.60379028 127.15653992 C92.58586397 133.21360785 96.59887381 139.24948555 100.625 145.27734375 C105.21449413 152.14866832 109.78055568 159.03454665 114.31640625 165.94140625 C114.87096497 166.78573212 115.42552368 167.63005798 115.99688721 168.49996948 C117.13804316 170.2375205 118.27918679 171.97507961 119.4203186 173.71264648 C132.08343092 192.98624151 144.90410595 212.14887622 157.8290863 231.24771118 C159.4581495 233.65537497 161.08588083 236.06393432 162.71337891 238.47265625 C164.54274243 241.18009931 166.37831795 243.88310271 168.22021484 246.58203125 C168.95578613 247.66742188 169.69135742 248.7528125 170.44921875 249.87109375 C171.07272217 250.78568359 171.69622559 251.70027344 172.33862305 252.64257812 C173.625 254.77734375 173.625 254.77734375 173.625 256.77734375 C165.15022238 257.31431984 156.68269904 257.72071182 148.19503689 257.9690237 C144.25121499 258.08833824 140.31913173 258.24932832 136.38208008 258.51245117 C111.26504524 260.14538544 111.26504524 260.14538544 103.89547729 254.79608154 C99.07506543 249.53028826 96.1041085 243.39085887 93.15560913 236.94387817 C90.72951236 231.92475293 87.59630851 227.44338367 84.44921875 222.85546875 C83.26612158 221.06738138 82.08660225 219.27692165 80.91064453 217.48413086 C79.71131938 215.66516466 78.51193674 213.84623637 77.3125 212.02734375 C76.68470642 211.07489777 76.05691284 210.12245178 75.41009521 209.1411438 C68.05245399 197.9795069 60.67945732 186.82882167 53.25 175.71484375 C46.72457332 165.95318679 40.25632205 156.15548591 33.8125 146.33984375 C32.86369498 144.89493367 31.91488308 143.4500281 30.96606445 142.00512695 C28.96001123 138.94994362 26.95409034 135.89467344 24.94824219 132.83935547 C24.41469116 132.02666199 23.88114014 131.21396851 23.3314209 130.37664795 C22.14425819 128.56830335 20.95717066 126.75990938 19.7701416 124.95147705 C15.81415447 118.92500967 11.8554667 112.90032941 7.89370728 106.87765503 C6.59686874 104.90521664 5.30093925 102.93218024 4.00595093 100.95852661 C2.18985932 98.19088446 0.37067167 95.42530143 -1.44921875 92.66015625 C-1.98988983 91.8346376 -2.53056091 91.00911896 -3.08761597 90.15858459 C-5.69003932 86.21136645 -8.33331527 82.40731537 -11.375 78.77734375 C-11.67752686 79.24366211 -11.98005371 79.70998047 -12.29174805 80.19042969 C-29.60437549 106.85231591 -47.08312589 133.41136583 -64.75 159.83984375 C-71.27542668 169.60150071 -77.74367795 179.39920159 -84.1875 189.21484375 C-85.13630502 190.65975383 -86.08511692 192.1046594 -87.03393555 193.54956055 C-89.03998877 196.60474388 -91.04590966 199.66001406 -93.05175781 202.71533203 C-93.58530884 203.52802551 -94.11885986 204.34071899 -94.6685791 205.17803955 C-95.85574181 206.98638415 -97.04282934 208.79477812 -98.2298584 210.60321045 C-102.18584553 216.62967783 -106.1445333 222.65435809 -110.10629272 228.67703247 C-111.40313126 230.64947086 -112.69906075 232.62250726 -113.99404907 234.59616089 C-115.81014068 237.36380304 -117.62932833 240.12938607 -119.44921875 242.89453125 C-119.98988983 243.7200499 -120.53056091 244.54556854 -121.08761597 245.39610291 C-121.84801682 246.54943871 -121.84801682 246.54943871 -122.6237793 247.72607422 C-123.06070602 248.39105927 -123.49763275 249.05604431 -123.94779968 249.74118042 C-124.41877579 250.41311432 -124.88975189 251.08504822 -125.375 251.77734375 C-125.95741959 252.67419388 -126.53983917 253.57104401 -127.13990784 254.49507141 C-129.375 256.77734375 -129.375 256.77734375 -132.3616333 257.37861633 C-133.52523376 257.36751328 -134.68883423 257.35641022 -135.88769531 257.3449707 C-136.53201508 257.34570084 -137.17633484 257.34643097 -137.84017944 257.34718323 C-139.96202899 257.34370991 -142.08166091 257.30486914 -144.203125 257.265625 C-145.67713217 257.25629576 -147.15115487 257.24918017 -148.62518311 257.2441864 C-152.49881029 257.22512472 -156.37149526 257.17603293 -160.24475098 257.1206665 C-164.19949599 257.069455 -168.15439375 257.04666842 -172.109375 257.02148438 C-179.8650122 256.96791179 -187.61987392 256.88261112 -195.375 256.77734375 C-194.16410367 253.55843812 -192.84047291 250.72129666 -190.94604492 247.85302734 C-190.45802902 247.10955048 -189.97001312 246.36607361 -189.46720886 245.60006714 C-188.93533463 244.8000528 -188.40346039 244.00003845 -187.85546875 243.17578125 C-187.01312431 241.89781174 -187.01312431 241.89781174 -186.15376282 240.59402466 C-184.29472872 237.77697987 -182.4288116 234.96457145 -180.5625 232.15234375 C-179.24983345 230.16742784 -177.9373361 228.18240002 -176.625 226.19726562 C-167.19090449 211.94463664 -157.650589 197.76490263 -148.06991577 183.61053467 C-138.28799738 169.15669211 -128.64771426 154.61499559 -119.06854248 140.02615356 C-109.97868011 126.18730752 -100.78017801 112.42673067 -91.5 98.71484375 C-82.68363009 85.68752131 -73.93261065 72.6229418 -65.3125 59.46484375 C-64.37960794 58.04228449 -63.44666582 56.61975806 -62.51367188 55.19726562 C-58.87113326 49.64196885 -55.23018801 44.08564108 -51.59521484 38.52539062 C-49.33264627 35.06632607 -47.06112771 31.61328294 -44.78372192 28.16397095 C-43.94687593 26.89335364 -43.11296699 25.62079557 -42.28244019 24.34603882 C-20.03607238 -9.78735772 -20.03607238 -9.78735772 0 0 Z " fill="#2F67A1" transform="translate(1287.375,3.22265625)"/>
<path d="M0 0 C1.03490067 -0.00131424 2.06980133 -0.00262848 3.13606262 -0.00398254 C6.54111353 0.00226508 9.94167566 0.07214979 13.34594727 0.14282227 C15.71246418 0.15961665 18.07901246 0.17242389 20.4455719 0.18141174 C26.66229252 0.21570972 32.87710849 0.30406133 39.09307861 0.40374756 C45.44077794 0.49595785 51.78878628 0.53695028 58.13696289 0.58227539 C70.58376145 0.67868238 83.02914886 0.83220729 95.47485352 1.02172852 C94.24874384 4.16843584 93.05138495 6.88711336 91.07641602 9.63110352 C90.60308838 10.294729 90.12976074 10.95835449 89.64208984 11.64208984 C89.13315186 12.34487061 88.62421387 13.04765137 88.09985352 13.77172852 C87.01240773 15.2911122 85.92517422 16.81064784 84.83813477 18.33032227 C84.28077637 19.10617676 83.72341797 19.88203125 83.14916992 20.68139648 C81.5304997 22.9439472 79.92717469 25.21639618 78.33032227 27.49438477 C77.81969238 28.22238281 77.3090625 28.95038086 76.78295898 29.70043945 C75.82923641 31.06112103 74.87634852 32.4223883 73.92456055 33.78442383 C73.0160242 35.07603101 72.08424705 36.35161132 71.12966919 37.60957336 C69.37035457 40.03793855 69.37035457 40.03793855 68.0512085 43.02476501 C65.56103725 47.52871101 63.32694856 51.18907759 58.17542076 52.69303322 C50.96349358 53.7565571 43.67179999 53.39558433 36.40844727 53.19360352 C34.04480812 53.17120291 31.681113 53.15413039 29.31739807 53.14215088 C23.11644808 53.09648025 16.9189081 52.97874237 10.71929932 52.84570312 C4.38503144 52.7226189 -1.94979132 52.66807105 -8.28491211 52.60766602 C-20.6998163 52.47923168 -33.11219711 52.27461418 -45.52514648 52.02172852 C-44.26499958 48.77617868 -43.02322941 46.06091409 -40.94311523 43.26391602 C-40.42958496 42.56516357 -39.91605469 41.86641113 -39.38696289 41.14648438 C-38.83443848 40.40406494 -38.28191406 39.66164551 -37.71264648 38.89672852 C-32.34589171 31.58891948 -27.15744098 24.18389555 -22.10400391 16.65600586 C-21.13417365 15.22111539 -20.15229203 13.7942578 -19.15564823 12.37786007 C-18.08556057 10.8315463 -17.05310176 9.25836391 -16.06408596 7.65898228 C-11.47239457 0.80348552 -8.0553302 -0.26982106 0 0 Z " fill="#E48030" transform="translate(1140.525146484375,0.978271484375)"/>
<path d="M0 0 C2.55180036 1.8320618 3.18803142 2.96316685 4.4375 5.75 C5.11296875 5.32847656 5.7884375 4.90695312 6.484375 4.47265625 C7.37640625 3.92480469 8.2684375 3.37695312 9.1875 2.8125 C10.06921875 2.26722656 10.9509375 1.72195313 11.859375 1.16015625 C17.43006374 -1.88684168 23.20734662 -1.73828488 29.4375 -1.25 C34.68820216 0.46841162 36.75671079 2.98415251 39.4375 7.75 C42.23863078 16.15339234 40.13637355 26.51747455 39.5 35.1875 C39.41298828 36.45271484 39.32597656 37.71792969 39.23632812 39.02148438 C39.14931641 40.22998047 39.06230469 41.43847656 38.97265625 42.68359375 C38.894104 43.77728271 38.81555176 44.87097168 38.73461914 45.99780273 C38.4375 48.75 38.4375 48.75 37.4375 51.75 C32.8175 51.75 28.1975 51.75 23.4375 51.75 C23.5096875 50.16832031 23.581875 48.58664062 23.65625 46.95703125 C23.89853544 41.54141561 24.11669386 36.12515335 24.32177734 30.70800781 C24.39119322 28.93365603 24.46542889 27.15946869 24.54931641 25.38574219 C24.63494348 23.57044825 24.69414095 21.75395365 24.75 19.9375 C24.78738281 18.98230469 24.82476563 18.02710938 24.86328125 17.04296875 C24.62742161 14.61777011 24.62742161 14.61777011 22.69921875 12.91015625 C20.06019906 11.55646221 18.83648322 11.54331086 15.9375 12 C14.80828125 12.16242188 14.80828125 12.16242188 13.65625 12.328125 C11.55777264 12.72713126 9.50693017 13.22341362 7.4375 13.75 C7.38215088 14.72348389 7.32680176 15.69696777 7.26977539 16.69995117 C7.06272766 20.32499987 6.85102343 23.94976442 6.63793945 27.57446289 C6.54650665 29.14079589 6.45632267 30.70720233 6.36743164 32.27368164 C6.2391567 34.53031737 6.10633552 36.78664749 5.97265625 39.04296875 C5.91477684 40.08701118 5.91477684 40.08701118 5.85572815 41.15214539 C5.63408008 44.81415571 5.16203435 48.12732825 4.4375 51.75 C-0.1825 51.75 -4.8025 51.75 -9.5625 51.75 C-9.64387605 45.72817241 -9.53673245 39.81721789 -9.0625 33.8125 C-8.72439891 29.23047327 -8.39975403 24.654957 -8.25 20.0625 C-8.21261719 19.10988281 -8.17523437 18.15726562 -8.13671875 17.17578125 C-8.35629653 14.63948957 -8.35629653 14.63948957 -10.265625 12.90625 C-13.04725107 11.50597565 -14.55688879 11.54415241 -17.625 11.9375 C-18.91083984 12.08251953 -18.91083984 12.08251953 -20.22265625 12.23046875 C-22.8167583 12.65866851 -22.8167583 12.65866851 -25.5625 14.75 C-26.15138422 17.61857733 -26.15138422 17.61857733 -26.2578125 21.0078125 C-26.33386719 22.27367187 -26.40992188 23.53953125 -26.48828125 24.84375 C-26.55527123 26.18747103 -26.62167301 27.5312215 -26.6875 28.875 C-26.83404049 31.48187816 -26.98242831 34.08865325 -27.1328125 36.6953125 C-27.20145508 37.91895508 -27.27009766 39.14259766 -27.34082031 40.40332031 C-27.59362544 44.21989823 -28.01367047 47.96596483 -28.5625 51.75 C-33.1825 51.75 -37.8025 51.75 -42.5625 51.75 C-42.76296198 40.56589176 -41.97334049 29.57644754 -41.0625 18.4375 C-40.91750097 16.61787576 -40.77296642 14.79821444 -40.62890625 12.97851562 C-40.27878282 8.56856535 -39.92240557 4.15916227 -39.5625 -0.25 C-34.9425 -0.25 -30.3225 -0.25 -25.5625 -0.25 C-25.2325 0.74 -24.9025 1.73 -24.5625 2.75 C-23.67111328 2.316875 -23.67111328 2.316875 -22.76171875 1.875 C-15.07708233 -1.56695224 -8.09501506 -2.84035616 0 0 Z " fill="#2F67A0" transform="translate(1161.5625,325.25)"/>
<path d="M0 0 C7.32649427 7.5419794 7.125 14.62987716 7.125 25.1875 C-7.065 25.1875 -21.255 25.1875 -35.875 25.1875 C-33.01517152 32.26497104 -33.01517152 32.26497104 -27.875 36.1875 C-21.75893502 37.69866781 -17.47392451 37.37120217 -11.875 34.1875 C-10.823125 33.07375 -10.823125 33.07375 -9.75 31.9375 C-7.875 30.1875 -7.875 30.1875 -5.5 30.25 C-2.47943895 31.3287718 0.29838567 32.67559001 3.125 34.1875 C2.2961313 39.57514653 -1.69225625 42.10272648 -5.875 45.1875 C-13.24431611 49.44020951 -22.15809994 50.29766255 -30.4296875 48.69140625 C-37.52882753 46.78175916 -43.37323305 44.09089346 -47.25 37.625 C-50.75988959 30.20023357 -51.19131653 21.53999192 -49.2265625 13.55078125 C-45.99002068 5.62540321 -40.57556011 -0.5757894 -32.76953125 -4.12109375 C-21.46966294 -8.24496322 -9.96781022 -6.28405427 0 0 Z M-32.8125 11.3125 C-34.03933752 13.11832115 -34.03933752 13.11832115 -33.875 15.1875 C-25.295 15.1875 -16.715 15.1875 -7.875 15.1875 C-9.27992443 9.33498941 -9.27992443 9.33498941 -12.5 6.8125 C-20.33298566 3.04106246 -27.05292298 4.99554456 -32.8125 11.3125 Z " fill="#2F67A0" transform="translate(1382.875,329.8125)"/>
<path d="M0 0 C5.93929258 5.62407873 8.08326936 12.27228831 8.4375 20.3125 C8.10638011 28.93904448 5.70107882 35.98642118 -0.4765625 42.1640625 C-8.58089267 48.75052481 -16.94499645 50.62099513 -27.25 49.9375 C-34.73142004 48.84299596 -40.80225268 46.08395367 -45.5625 40.125 C-50.42936858 33.09075262 -51.25356732 25.73082046 -49.8203125 17.45703125 C-47.9348264 9.95000327 -44.32145323 3.56202139 -37.7109375 -0.69921875 C-25.62691381 -6.91946104 -11.67958619 -7.41204508 0 0 Z M-30.69140625 11.40625 C-35.06831736 16.49394155 -35.61871507 19.6084741 -35.515625 26.171875 C-35.12877988 30.19961537 -34.14773 32.11044634 -31.25 34.9375 C-27.05136162 37.24716355 -22.90350728 38.39662666 -18.125 37.625 C-13.09445642 35.96159381 -9.8533186 32.45392016 -7.25 27.9375 C-5.80740367 23.12884556 -5.78921725 19.31984824 -7.375 14.5625 C-9.92561746 10.99163556 -12.00127527 8.54436472 -16.36328125 7.3671875 C-22.17278521 6.44938351 -26.37932423 7.01236697 -30.69140625 11.40625 Z " fill="#2F67A0" transform="translate(1261.25,329.0625)"/>
<path d="M0 0 C4.07696947 3.64781479 4.54715879 6.9865532 4.921875 12.20703125 C4.94765625 12.79871094 4.9734375 13.39039063 5 14 C2.89758397 14.13496251 0.7927039 14.23197307 -1.3125 14.3125 C-2.48425781 14.37050781 -3.65601563 14.42851562 -4.86328125 14.48828125 C-6.41595703 14.24658203 -6.41595703 14.24658203 -8 14 C-9.6640625 11.5078125 -9.6640625 11.5078125 -11 9 C-13.86871255 8.1876715 -15.9660907 8.66289897 -19 9 C-19.66 9.66 -20.32 10.32 -21 11 C-20.97871217 13.07559008 -20.97871217 13.07559008 -20 15 C-18.29411417 16.03651126 -18.29411417 16.03651126 -16.140625 16.5625 C-14.96113281 16.92214844 -14.96113281 16.92214844 -13.7578125 17.2890625 C-12.93023438 17.52367187 -12.10265625 17.75828125 -11.25 18 C1.04256466 21.55118534 1.04256466 21.55118534 4.3125 27.3125 C5.91723184 33.58554265 5.17000061 38.37580538 2 44 C-2.9485593 49.70786205 -8.03606676 51.6305163 -15.4140625 52.1796875 C-22.44392476 52.37556601 -29.27024774 52.1489539 -34.9375 47.6875 C-38.39097032 43.18752352 -39 40.74502956 -39 35 C-34.71 35 -30.42 35 -26 35 C-25.34 36.32 -24.68 37.64 -24 39 C-21.95829288 39.77546924 -21.95829288 39.77546924 -19.625 39.875 C-18.85414062 39.95492187 -18.08328125 40.03484375 -17.2890625 40.1171875 C-14.7199432 39.98566262 -13.19815501 39.29480364 -11 38 C-11 36.35 -11 34.7 -11 33 C-15.12863296 30.79557154 -19.04709234 29.32981952 -23.5625 28.125 C-28.77460087 26.57979336 -31.77414498 25.3779461 -35 21 C-36.97686549 17.04626902 -36.42666818 12.30934862 -36 8 C-33.51499772 2.53299499 -30.2273263 0.52031804 -25 -2 C-17.24406615 -4.55151636 -6.95884274 -4.38709651 0 0 Z " fill="#3066A0" transform="translate(1463,327)"/>
<path d="M0 0 C5.28 0 10.56 0 16 0 C19.63 10.56 23.26 21.12 27 32 C29.5835563 28.55525827 31.27661517 25.59329256 33.1015625 21.73828125 C33.38349457 21.1470195 33.66542664 20.55575775 33.9559021 19.94657898 C34.84980055 18.07051437 35.73776854 16.19172558 36.625 14.3125 C37.52018148 12.42296591 38.41663219 10.53405924 39.31552124 8.64628601 C40.12673545 6.94171505 40.93382934 5.23518504 41.74072266 3.52856445 C43 1 43 1 44 0 C46.53049402 -0.07313567 49.03304837 -0.09247527 51.5625 -0.0625 C52.62887695 -0.05573242 52.62887695 -0.05573242 53.71679688 -0.04882812 C55.47790013 -0.03700864 57.23896036 -0.01907263 59 0 C57.44839677 5.16791006 55.23806042 9.81458757 52.82421875 14.6171875 C52.41718216 15.43317413 52.01014557 16.24916077 51.59077454 17.08987427 C50.73118404 18.81041178 49.86958649 20.52994785 49.00610352 22.24853516 C47.69665788 24.85675884 46.39575952 27.4691173 45.09570312 30.08203125 C44.2557209 31.76067325 43.41524203 33.43906684 42.57421875 35.1171875 C42.19069748 35.8882785 41.80717621 36.65936951 41.41203308 37.4538269 C40.30345683 39.65227078 39.15633065 41.82636902 38 44 C37.62380524 44.76346741 37.24761047 45.52693481 36.86001587 46.3135376 C35.71194441 48.44806582 34.65932628 50.23234491 33 52 C29.44921875 52.78125 29.44921875 52.78125 25.6875 52.5 C24.43324219 52.4278125 23.17898438 52.355625 21.88671875 52.28125 C20.93410156 52.1884375 19.98148438 52.095625 19 52 C16.93409722 46.52420563 14.87123824 41.0472773 12.81103516 35.56933594 C12.11164916 33.71095824 11.41147237 31.85287793 10.71044922 29.99511719 C6.95820292 20.04979104 3.26098587 10.11914173 0 0 Z " fill="#2E67A1" transform="translate(1273,325)"/>
<path d="M0 0 C4.95 0 9.9 0 15 0 C14.59450754 6.2807463 14.18546615 12.56124785 13.77319336 18.84155273 C13.63355504 20.97625536 13.49487166 23.11102068 13.35717773 25.24584961 C13.1586251 28.32162345 12.95659294 31.3971524 12.75390625 34.47265625 C12.6934462 35.42084732 12.63298615 36.36903839 12.57069397 37.34596252 C12.24222771 42.276265 11.77766803 47.11976631 11 52 C6.38 52 1.76 52 -3 52 C-3.21890471 41.01828047 -2.36648771 30.18674199 -1.5 19.25 C-1.35504911 17.37763661 -1.21051462 15.50524093 -1.06640625 13.6328125 C-0.71573478 9.08815539 -0.359439 4.54397174 0 0 Z " fill="#2F67A0" transform="translate(1402,325)"/>
<path d="M0 0 C4.95 0 9.9 0 15 0 C14.59450754 6.2807463 14.18546615 12.56124785 13.77319336 18.84155273 C13.63355504 20.97625536 13.49487166 23.11102068 13.35717773 25.24584961 C13.1586251 28.32162345 12.95659294 31.3971524 12.75390625 34.47265625 C12.6934462 35.42084732 12.63298615 36.36903839 12.57069397 37.34596252 C12.24222771 42.276265 11.77766803 47.11976631 11 52 C6.38 52 1.76 52 -3 52 C-3.21890471 41.01828047 -2.36648771 30.18674199 -1.5 19.25 C-1.35504911 17.37763661 -1.21051462 15.50524093 -1.06640625 13.6328125 C-0.71573478 9.08815539 -0.359439 4.54397174 0 0 Z " fill="#2F67A0" transform="translate(1094,325)"/>
<path d="M0 0 C2.4375 1.9375 2.4375 1.9375 3.4375 5.3125 C3.4375 8.9375 3.4375 8.9375 2.3515625 11.30078125 C1.18263991 14.67267333 1.75688899 16.38016485 2.8125 19.75 C3.10898437 20.72582031 3.40546875 21.70164062 3.7109375 22.70703125 C4.07058594 23.81111328 4.07058594 23.81111328 4.4375 24.9375 C2.1275 24.9375 -0.1825 24.9375 -2.5625 24.9375 C-2.82804687 24.29941406 -3.09359375 23.66132813 -3.3671875 23.00390625 C-3.72039063 22.17761719 -4.07359375 21.35132813 -4.4375 20.5 C-4.78554688 19.67628906 -5.13359375 18.85257812 -5.4921875 18.00390625 C-6.3869937 15.78003285 -6.3869937 15.78003285 -8.5625 14.9375 C-8.5625 18.2375 -8.5625 21.5375 -8.5625 24.9375 C-10.8725 24.9375 -13.1825 24.9375 -15.5625 24.9375 C-15.5625 16.6875 -15.5625 8.4375 -15.5625 -0.0625 C-10.87476135 -2.40636933 -4.84220672 -1.44416692 0 0 Z M-8.5625 3.9375 C-8.5625 5.9175 -8.5625 7.8975 -8.5625 9.9375 C-6.9125 9.6075 -5.2625 9.2775 -3.5625 8.9375 C-3.8925 7.6175 -4.2225 6.2975 -4.5625 4.9375 C-5.8825 4.6075 -7.2025 4.2775 -8.5625 3.9375 Z " fill="#30669F" transform="translate(41.5625,401.0625)"/>
<path d="M0 0 C3.125 1.9375 3.125 1.9375 4.1875 5.3125 C4.125 8.9375 4.125 8.9375 3.03515625 11.30078125 C1.87150031 14.67188751 2.44504152 16.38224792 3.5 19.75 C3.79648437 20.72582031 4.09296875 21.70164062 4.3984375 22.70703125 C4.75808594 23.81111328 4.75808594 23.81111328 5.125 24.9375 C2.815 24.9375 0.505 24.9375 -1.875 24.9375 C-2.14054687 24.29941406 -2.40609375 23.66132813 -2.6796875 23.00390625 C-3.03289063 22.17761719 -3.38609375 21.35132813 -3.75 20.5 C-4.09804688 19.67628906 -4.44609375 18.85257812 -4.8046875 18.00390625 C-5.6994937 15.78003285 -5.6994937 15.78003285 -7.875 14.9375 C-7.875 18.2375 -7.875 21.5375 -7.875 24.9375 C-10.185 24.9375 -12.495 24.9375 -14.875 24.9375 C-14.875 16.6875 -14.875 8.4375 -14.875 -0.0625 C-9.67713976 -1.36196506 -5.12627661 -1.71577636 0 0 Z M-6.875 3.9375 C-8.17133621 5.00395115 -8.17133621 5.00395115 -7.9375 7.5 C-7.916875 8.304375 -7.89625 9.10875 -7.875 9.9375 C-6.225 9.6075 -4.575 9.2775 -2.875 8.9375 C-3.14176204 6.95258358 -3.14176204 6.95258358 -3.875 4.9375 C-4.865 4.6075 -5.855 4.2775 -6.875 3.9375 Z " fill="#31669F" transform="translate(39.875,313.0625)"/>
<path d="M0 0 C14.33035714 -0.66964286 14.33035714 -0.66964286 17.4375 2.125 C19 5 19 5 18.9375 8.125 C18 11 18 11 16 14 C17.28432339 17.49705129 17.28432339 17.49705129 19 21 C19.37308631 22.32276056 19.73046415 23.65232077 20 25 C17.69 25 15.38 25 13 25 C12.81824219 24.43410156 12.63648438 23.86820312 12.44921875 23.28515625 C12.19785156 22.55167969 11.94648437 21.81820313 11.6875 21.0625 C11.44386719 20.33160156 11.20023438 19.60070312 10.94921875 18.84765625 C10.08759559 16.64067976 10.08759559 16.64067976 7 16 C7 18.97 7 21.94 7 25 C4.69 25 2.38 25 0 25 C0 16.75 0 8.5 0 0 Z M7 5 C7 6.98 7 8.96 7 11 C8.32 10.67 9.64 10.34 11 10 C11.33 8.68 11.66 7.36 12 6 C10.35 5.67 8.7 5.34 7 5 Z " fill="#2F67A0" transform="translate(25,356)"/>
<path d="M0 0 C2.5625 1.5 2.5625 1.5 4 4 C3.9178305 6.72254934 3.42846948 9.30064228 3 12 C3.99 13.485 3.99 13.485 5 15 C4.77693903 21.24570718 4.77693903 21.24570718 2.2578125 23.69140625 C-1.64735595 25.95478243 -5.62554655 25.64672152 -10 25 C-12.625 23.375 -12.625 23.375 -14 21 C-14.50299316 16.89222251 -14.32749345 15.49124017 -12 12 C-12.33 11.34 -12.66 10.68 -13 10 C-13.25860135 5.94857881 -13.30441554 4.45662331 -11 1 C-7.28431526 -0.23856158 -3.861143 -0.53497764 0 0 Z M-6 5 C-6 6.32 -6 7.64 -6 9 C-4.68 8.67 -3.36 8.34 -2 8 C-2.33 7.01 -2.66 6.02 -3 5 C-3.99 5 -4.98 5 -6 5 Z M-6 15 C-6.33 16.65 -6.66 18.3 -7 20 C-6.01 20.33 -5.02 20.66 -4 21 C-3.34 20.67 -2.68 20.34 -2 20 C-2.26676204 18.01508358 -2.26676204 18.01508358 -3 16 C-3.99 15.67 -4.98 15.34 -6 15 Z " fill="#2F67A0" transform="translate(149,401)"/>
<path d="M0 0 C1.625 1.4375 1.625 1.4375 2.4375 4.875 C2.625 8.4375 2.625 8.4375 1.625 11.4375 C2.615 12.9225 2.615 12.9225 3.625 14.4375 C3.40193903 20.68320718 3.40193903 20.68320718 0.8828125 23.12890625 C-3.02235595 25.39228243 -7.00054655 25.08422152 -11.375 24.4375 C-14 22.8125 -14 22.8125 -15.375 20.4375 C-15.87799316 16.32972251 -15.70249345 14.92874017 -13.375 11.4375 C-13.705 10.7775 -14.035 10.1175 -14.375 9.4375 C-14.83413043 4.04271739 -14.83413043 4.04271739 -13 1.625 C-8.95931466 -1.32780852 -4.78847653 -1.13411286 0 0 Z M-7.375 4.4375 C-7.375 5.7575 -7.375 7.0775 -7.375 8.4375 C-6.055 8.1075 -4.735 7.7775 -3.375 7.4375 C-3.705 6.4475 -4.035 5.4575 -4.375 4.4375 C-5.365 4.4375 -6.355 4.4375 -7.375 4.4375 Z M-7.375 14.4375 C-7.705 16.0875 -8.035 17.7375 -8.375 19.4375 C-7.385 19.7675 -6.395 20.0975 -5.375 20.4375 C-4.715 19.1175 -4.055 17.7975 -3.375 16.4375 C-4.695 15.7775 -6.015 15.1175 -7.375 14.4375 Z " fill="#30679E" transform="translate(139.375,313.5625)"/>
<path d="M0 0 C3.06487031 3.85946632 3.07974286 7.33963717 2.6875 12.125 C1.22659945 16.92133012 -0.32040491 19.5370918 -4.6875 22.125 C-8.11249705 23.06982677 -10.7859149 23.38304281 -14.3125 23.125 C-14.3125 21.145 -14.3125 19.165 -14.3125 17.125 C-11.6725 16.465 -9.0325 15.805 -6.3125 15.125 C-7.59125 14.856875 -8.87 14.58875 -10.1875 14.3125 C-13.80925855 13.55309901 -14.11301868 13.42422197 -16.3125 10.125 C-16.77181923 5.99112691 -16.74544883 3.83627308 -14.5625 0.25 C-10.14215696 -3.92476843 -4.7998489 -3.89176938 0 0 Z M-9.3125 3.125 C-9.3125 4.775 -9.3125 6.425 -9.3125 8.125 C-7.9925 8.455 -6.6725 8.785 -5.3125 9.125 C-4.9825 7.475 -4.6525 5.825 -4.3125 4.125 C-5.9625 3.795 -7.6125 3.465 -9.3125 3.125 Z " fill="#3166A0" transform="translate(160.3125,358.875)"/>
<path d="M0 0 C3.40820444 2.85552264 4.32012081 5.54338858 4.9375 9.8125 C5.26190408 14.97979362 4.37888724 18.40628672 2 23 C-0.34032716 24.93682248 -1.92608869 24.98899193 -4.9375 25.4375 C-9.0407637 24.85131947 -10.3956523 23.12521724 -13 20 C-14.96522841 16.06954318 -14.33310264 11.29399587 -14 7 C-12.75013945 3.25041836 -12.03103047 1.64091083 -8.6875 -0.4375 C-5.33355555 -1.13948837 -3.27418698 -1.04495329 0 0 Z M-6 5 C-7.96093203 9.72930665 -8.24690188 13.01239248 -7 18 C-5.515 18.99 -5.515 18.99 -4 20 C-1.81914943 16.72872414 -1.75112141 15.72623277 -1.8125 11.9375 C-1.81894531 11.05964844 -1.82539062 10.18179687 -1.83203125 9.27734375 C-1.85720868 6.96874009 -1.85720868 6.96874009 -3 5 C-3.99 5 -4.98 5 -6 5 Z " fill="#32659F" transform="translate(118,357)"/>
<path d="M0 0 C0 1.65 0 3.3 0 5 C-2.31 5.66 -4.62 6.32 -7 7 C-5.329375 7.680625 -5.329375 7.680625 -3.625 8.375 C0 10 0 10 2 12 C2.55090376 16.80073273 2.70273285 18.91189752 0.0625 23 C-4.01573773 25.66333892 -7.25044982 25.97654303 -12 25 C-15.03215675 22.80168636 -15.81654398 21.55036806 -17 18 C-17.53462577 11.58449072 -16.87599437 8.20199245 -13 3 C-8.63565714 -0.0065473 -5.23080226 -0.31384814 0 0 Z M-9 13 C-10.29633621 14.06645115 -10.29633621 14.06645115 -10.0625 16.5625 C-10.041875 17.366875 -10.02125 18.17125 -10 19 C-8.68 19.33 -7.36 19.66 -6 20 C-5.34 18.68 -4.68 17.36 -4 16 C-4.66 15.01 -5.32 14.02 -6 13 C-6.99 13 -7.98 13 -9 13 Z " fill="#31669E" transform="translate(181,313)"/>
<path d="M0 0 C5.28 0 10.56 0 16 0 C16 1.98 16 3.96 16 6 C12.7 6 9.4 6 6 6 C6 7.32 6 8.64 6 10 C8.97 10 11.94 10 15 10 C15 11.98 15 13.96 15 16 C12.03 16 9.06 16 6 16 C6 17.32 6 18.64 6 20 C9.3 20 12.6 20 16 20 C16 21.98 16 23.96 16 26 C10.72 26 5.44 26 0 26 C0 17.42 0 8.84 0 0 Z " fill="#32669D" transform="translate(48,400)"/>
<path d="M0 0 C3.38939556 2.13679285 4.72582557 3.1774767 6 7 C6.42324134 13.45443051 5.7712836 17.65136565 1.5 22.8125 C-1.24188123 24.98315597 -3.83716943 25.11742345 -7.1875 25.0625 C-9.0746875 25.0315625 -9.0746875 25.0315625 -11 25 C-11 23.35 -11 21.7 -11 20 C-8.69 19.34 -6.38 18.68 -4 18 C-5.11375 17.566875 -6.2275 17.13375 -7.375 16.6875 C-11 15 -11 15 -13 12 C-13.50835292 8.1026276 -13.32962183 6.49443274 -11.125 3.1875 C-7.57218626 -0.46980826 -5.03088285 -0.426346 0 0 Z M-5 5 C-6.29633621 6.06645115 -6.29633621 6.06645115 -6.0625 8.5625 C-6.041875 9.366875 -6.02125 10.17125 -6 11 C-4.68 11.33 -3.36 11.66 -2 12 C-1.67 10.35 -1.34 8.7 -1 7 C-2.32 6.34 -3.64 5.68 -5 5 Z " fill="#30679F" transform="translate(157,313)"/>
<path d="M0 0 C5.28 0 10.56 0 16 0 C16 1.65 16 3.3 16 5 C12.7 5 9.4 5 6 5 C6 6.32 6 7.64 6 9 C8.97 9 11.94 9 15 9 C15 10.98 15 12.96 15 15 C12.03 15 9.06 15 6 15 C6 16.32 6 17.64 6 19 C9.3 19 12.6 19 16 19 C16 20.98 16 22.96 16 25 C10.72 25 5.44 25 0 25 C0 16.75 0 8.5 0 0 Z " fill="#31669E" transform="translate(47,313)"/>
<path d="M0 0 C3 1.5625 3 1.5625 5 4 C5.74161192 8.4496715 5.31540948 10.45057703 3.0625 14.375 C1 17 1 17 0 18 C1.98 18.33 3.96 18.66 6 19 C6 20.98 6 22.96 6 25 C0.06 25 -5.88 25 -12 25 C-12 20 -12 20 -10.06640625 17.71875 C-9.24011719 16.9865625 -8.41382813 16.254375 -7.5625 15.5 C-4.11001909 12.43112808 -2.45251897 10.67328686 -2 6 C-6.455 6.495 -6.455 6.495 -11 7 C-11.33 5.35 -11.66 3.7 -12 2 C-8.28308551 -0.477943 -4.31397916 -0.67486011 0 0 Z " fill="#30669E" transform="translate(188,401)"/>
<path d="M0 0 C4.62 0 9.24 0 14 0 C14 1.98 14 3.96 14 6 C11.03 6 8.06 6 5 6 C5 6.66 5 7.32 5 8 C5.9075 8.0825 6.815 8.165 7.75 8.25 C11.52571704 9.12131932 12.81907617 9.81249593 15 13 C15.69758716 17.26303263 15.46334187 19.24906662 13.1875 22.9375 C8.60479684 25.90277851 4.32881496 25.62586753 -1 25 C-2 24 -2 24 -2.0625 21.4375 C-2.041875 20.633125 -2.02125 19.82875 -2 19 C0.97 19 3.94 19 7 19 C7 17.68 7 16.36 7 15 C4.36 14.67 1.72 14.34 -1 14 C-0.67 9.38 -0.34 4.76 0 0 Z " fill="#30669F" transform="translate(158,401)"/>
<path d="M0 0 C5.28 0 10.56 0 16 0 C16 1.65 16 3.3 16 5 C12.7 5 9.4 5 6 5 C6 6.65 6 8.3 6 10 C8.97 10 11.94 10 15 10 C15 11.65 15 13.3 15 15 C12.03 15 9.06 15 6 15 C6 16.65 6 18.3 6 20 C9.3 20 12.6 20 16 20 C16 21.65 16 23.3 16 25 C10.72 25 5.44 25 0 25 C0 16.75 0 8.5 0 0 Z " fill="#30669F" transform="translate(47,356)"/>
<path d="M0 0 C5.61 0 11.22 0 17 0 C15.02 2.97 15.02 2.97 13 6 C12.57976562 6.64888184 12.15953125 7.29776367 11.7265625 7.96630859 C4.23839755 19.40102857 4.23839755 19.40102857 -1.38671875 20.90625 C-4.3802826 20.87790857 -7.07966979 20.64216685 -10 20 C-9.37666027 17.04703576 -8.43098208 14.72453208 -6.93359375 12.109375 C-6.53076172 11.40039062 -6.12792969 10.69140625 -5.71289062 9.9609375 C-5.29201172 9.23132813 -4.87113281 8.50171875 -4.4375 7.75 C-4.01275391 7.00492187 -3.58800781 6.25984375 -3.15039062 5.4921875 C-2.10453958 3.65901039 -1.05283808 1.82917323 0 0 Z " fill="#32669F" transform="translate(1247,298)"/>
<path d="M0 0 C-0.33 1.98 -0.66 3.96 -1 6 C-1.92232422 5.93039062 -1.92232422 5.93039062 -2.86328125 5.859375 C-7.81399874 5.51544552 -7.81399874 5.51544552 -12.125 7.5625 C-13.38841632 11.0820169 -12.99164185 13.43008934 -12 17 C-8.84891918 19.78749457 -5.0179289 19.15453573 -1 19 C-1 20.98 -1 22.96 -1 25 C-11.6653883 25.62128476 -11.6653883 25.62128476 -16.625 23.3125 C-19.27487448 20.73235906 -20.290753 19.62504021 -21 16 C-21.05612045 11.14157223 -20.72194256 7.23761582 -18.25 3 C-13.49929464 -1.22284921 -5.93496439 -2.9674822 0 0 Z " fill="#31669F" transform="translate(24,401)"/>
<path d="M0 0 C2.5625 1.6875 2.5625 1.6875 4 4 C4.55156953 7.76905843 4.16551116 8.75173326 2 12 C2.515625 12.53625 3.03125 13.0725 3.5625 13.625 C5 16 5 16 4.9375 19.0625 C3.83603241 22.5137651 3.08146446 23.20991588 0 25 C-2.7265625 25.328125 -2.7265625 25.328125 -5.625 25.25 C-6.58664063 25.23453125 -7.54828125 25.2190625 -8.5390625 25.203125 C-11 25 -11 25 -13 24 C-12.67 22.35 -12.34 20.7 -12 19 C-9.36 19 -6.72 19 -4 19 C-3.67 18.01 -3.34 17.02 -3 16 C-4.98 15.34 -6.96 14.68 -9 14 C-9 12.35 -9 10.7 -9 9 C-8.195625 8.87625 -7.39125 8.7525 -6.5625 8.625 C-5.716875 8.41875 -4.87125 8.2125 -4 8 C-3.67 7.34 -3.34 6.68 -3 6 C-4.9490625 6.2784375 -4.9490625 6.2784375 -6.9375 6.5625 C-9.15234375 6.87890625 -9.15234375 6.87890625 -11 7 C-12 6 -12 6 -12.0625 3.4375 C-12.041875 2.633125 -12.02125 1.82875 -12 1 C-7.95077511 -0.34974163 -4.23363178 -0.55021929 0 0 Z " fill="#30669F" transform="translate(128,401)"/>
<path d="M0 0 C2.4375 1.125 2.4375 1.125 4 3 C5.2502225 6.7506675 5.20091354 8.48767048 3.75 12.1875 C2.30400831 14.51141522 1.06111352 16.23333127 -1 18 C0.98 18.33 2.96 18.66 5 19 C5 20.98 5 22.96 5 25 C-0.94 25 -6.88 25 -13 25 C-13 20 -13 20 -11.3203125 18.0859375 C-10.23363281 17.23902344 -10.23363281 17.23902344 -9.125 16.375 C-6.47608556 14.27675594 -4.90527545 12.85791318 -3 10 C-3 9.01 -3 8.02 -3 7 C-6.28976808 5.90341064 -7.71303767 6.20046862 -11 7 C-11.33 5.35 -11.66 3.7 -12 2 C-8.22681778 -0.51545481 -4.37550096 -0.5660299 0 0 Z " fill="#30679E" transform="translate(117,313)"/>
<path d="M0 0 C0.66 0.33 1.32 0.66 2 1 C2 2.65 2 4.3 2 6 C0 7 0 7 -3.4375 6.875 C-6.85939111 6.71476744 -6.85939111 6.71476744 -8.9375 8.125 C-10.52990283 10.93512264 -10.45319325 12.82764724 -10 16 C-8.56338689 18.52006844 -8.56338689 18.52006844 -6 20 C-2.37464024 20.2503577 -2.37464024 20.2503577 1 20 C2 21 2 21 2.0625 23.5625 C2.041875 24.366875 2.02125 25.17125 2 26 C-0.06132142 26.10864945 -2.12431321 26.18588321 -4.1875 26.25 C-5.91033203 26.31960938 -5.91033203 26.31960938 -7.66796875 26.390625 C-11.68599772 25.91957823 -13.18842362 24.85652165 -16 22 C-18.67067515 17.90496476 -18.65823035 13.7392585 -18 9 C-16.19672394 5.25473434 -14.67282723 3.45874584 -11.25 1.125 C-7.17386305 -0.28597048 -4.29872493 -0.28658166 0 0 Z " fill="#32669E" transform="translate(84,400)"/>
<path d="M0 0 C2.19140625 0.01953125 2.19140625 0.01953125 5.69140625 0.76953125 C5.69140625 5.38953125 5.69140625 10.00953125 5.69140625 14.76953125 C6.68140625 14.76953125 7.67140625 14.76953125 8.69140625 14.76953125 C8.69140625 16.41953125 8.69140625 18.06953125 8.69140625 19.76953125 C7.70140625 19.76953125 6.71140625 19.76953125 5.69140625 19.76953125 C5.69140625 21.41953125 5.69140625 23.06953125 5.69140625 24.76953125 C3.71140625 24.76953125 1.73140625 24.76953125 -0.30859375 24.76953125 C-0.30859375 23.11953125 -0.30859375 21.46953125 -0.30859375 19.76953125 C-3.93859375 19.76953125 -7.56859375 19.76953125 -11.30859375 19.76953125 C-10.67774171 12.72353588 -7.4703582 2.4901194 0 0 Z M-1.30859375 8.76953125 C-2.29859375 10.74953125 -3.28859375 12.72953125 -4.30859375 14.76953125 C-2.98859375 14.76953125 -1.66859375 14.76953125 -0.30859375 14.76953125 C-0.30859375 12.78953125 -0.30859375 10.80953125 -0.30859375 8.76953125 C-0.63859375 8.76953125 -0.96859375 8.76953125 -1.30859375 8.76953125 Z " fill="#31669F" transform="translate(224.30859375,356.23046875)"/>
<path d="M0 0 C1.07765625 0.01804687 2.1553125 0.03609375 3.265625 0.0546875 C4.49539062 0.08949219 4.49539062 0.08949219 5.75 0.125 C5.42 2.105 5.09 4.085 4.75 6.125 C3.6775 6.063125 2.605 6.00125 1.5 5.9375 C-2.11896403 5.89707787 -2.11896403 5.89707787 -4.6875 7.1875 C-6.56758415 9.17097168 -6.56758415 9.17097168 -6.6875 12.625 C-6.47455068 15.9631887 -6.47455068 15.9631887 -5.25 18.0625 C-1.98357754 19.79778693 1.09351452 19.30482715 4.75 19.125 C5.08 21.105 5.41 23.085 5.75 25.125 C0.82092769 26.7680241 -3.06098662 26.5015209 -8 24.9375 C-11.66784512 22.89197099 -12.82902094 22.05358918 -14.25 18.125 C-14.93266618 13.02207027 -14.82382784 9.27265567 -12.5 4.625 C-8.61892198 0.31269109 -5.72710749 -0.12450234 0 0 Z " fill="#31669E" transform="translate(79.25,355.875)"/>
<path d="M0 0 C2.19140625 0.01953125 2.19140625 0.01953125 5.69140625 0.76953125 C5.69140625 5.38953125 5.69140625 10.00953125 5.69140625 14.76953125 C6.68140625 14.76953125 7.67140625 14.76953125 8.69140625 14.76953125 C8.69140625 16.41953125 8.69140625 18.06953125 8.69140625 19.76953125 C7.70140625 19.76953125 6.71140625 19.76953125 5.69140625 19.76953125 C5.69140625 21.41953125 5.69140625 23.06953125 5.69140625 24.76953125 C3.71140625 24.76953125 1.73140625 24.76953125 -0.30859375 24.76953125 C-0.30859375 23.11953125 -0.30859375 21.46953125 -0.30859375 19.76953125 C-3.93859375 19.76953125 -7.56859375 19.76953125 -11.30859375 19.76953125 C-10.67774171 12.72353588 -7.4703582 2.4901194 0 0 Z M-1.30859375 8.76953125 C-2.29859375 10.74953125 -3.28859375 12.72953125 -4.30859375 14.76953125 C-2.98859375 14.76953125 -1.66859375 14.76953125 -0.30859375 14.76953125 C-0.30859375 12.78953125 -0.30859375 10.80953125 -0.30859375 8.76953125 C-0.63859375 8.76953125 -0.96859375 8.76953125 -1.30859375 8.76953125 Z " fill="#3266A0" transform="translate(184.30859375,356.23046875)"/>
<path d="M0 0 C1.18851563 0.00902344 2.37703125 0.01804687 3.6015625 0.02734375 C4.51679688 0.03894531 5.43203125 0.05054688 6.375 0.0625 C6.045 2.0425 5.715 4.0225 5.375 6.0625 C3.4878125 5.9696875 3.4878125 5.9696875 1.5625 5.875 C-1.68151752 5.86968893 -1.68151752 5.86968893 -4.5625 7.25 C-5.93314118 9.5881526 -6.42682486 11.35410636 -6.625 14.0625 C-5.64769781 16.76887529 -5.21987555 17.76506222 -2.625 19.0625 C-1.25157169 19.1314472 0.12502102 19.14717708 1.5 19.125 C3.418125 19.0940625 3.418125 19.0940625 5.375 19.0625 C5.705 21.0425 6.035 23.0225 6.375 25.0625 C1.29734424 26.75505192 -3.00185815 26.67500636 -7.9375 24.8125 C-10.69142787 23.01924464 -11.94285645 21.84839964 -13.625 19.0625 C-14.40483415 14.39649235 -14.75174548 9.28677904 -12.5703125 4.98046875 C-8.62717007 0.18570089 -5.95281167 -0.0583609 0 0 Z " fill="#30679E" transform="translate(16.625,355.9375)"/>
<path d="M0 0 C0.66 0.33 1.32 0.66 2 1 C1.67 2.98 1.34 4.96 1 7 C-0.8871875 6.9071875 -0.8871875 6.9071875 -2.8125 6.8125 C-5.37705844 6.83065617 -6.71463773 6.8484013 -9 8.0625 C-10.60318593 11.16867275 -10.42751128 13.57990979 -10 17 C-8.53958234 19.11670357 -8.53958234 19.11670357 -6 20 C-2.33285151 20.25063732 -2.33285151 20.25063732 1 20 C1.38218767 21.65614657 1.71395102 23.32457024 2 25 C0.21557894 26.78442106 -2.27014155 26.2976921 -4.6875 26.375 C-8.74537832 26.35084596 -11.48989324 26.2973114 -14.6875 23.6875 C-18.17059981 19.6395732 -18.2851855 16.33428367 -18.21875 11.21875 C-17.81606154 7.13433844 -16.00707473 4.88119039 -13 2.25 C-8.66194656 -0.4612834 -4.94633203 -0.15702641 0 0 Z " fill="#31669E" transform="translate(83,312)"/>
<path d="M0 0 C-0.33 1.98 -0.66 3.96 -1 6 C-1.61488281 5.94199219 -2.22976562 5.88398438 -2.86328125 5.82421875 C-5.31675927 5.68726224 -7.56435041 5.66375103 -10 6 C-12.35067127 7.94527108 -12.35067127 7.94527108 -13 11 C-12.77752165 14.73093378 -12.77752165 14.73093378 -12 18 C-10.741875 18.165 -9.48375 18.33 -8.1875 18.5 C-7.12595703 18.63921875 -7.12595703 18.63921875 -6.04296875 18.78125 C-3.84528294 19.053233 -3.84528294 19.053233 -1 19 C-0.61781233 20.65614657 -0.28604898 22.32457024 0 24 C-1.78569161 25.78569161 -4.33653738 25.21468103 -6.75 25.25 C-7.79671875 25.27578125 -8.8434375 25.3015625 -9.921875 25.328125 C-13.43571456 24.95355327 -15.22004695 24.15786565 -18 22 C-21.10455676 17.56357902 -20.47693453 12.1770474 -20 7 C-18.60353675 3.05704494 -17.45961635 2.26135047 -13.8125 0.1875 C-9.25930862 -1.23070715 -4.46935045 -2.23467522 0 0 Z " fill="#3066A0" transform="translate(23,313)"/>
<path d="M0 0 C5.94 0 11.88 0 18 0 C18 6.75 18 6.75 15.8125 10.7421875 C15.36132812 11.58007812 14.91015625 12.41796875 14.4453125 13.28125 C13.96835938 14.1371875 13.49140625 14.993125 13 15.875 C12.52304688 16.75414062 12.04609375 17.63328125 11.5546875 18.5390625 C10.38078576 20.6990417 9.19576677 22.85207214 8 25 C5.69 25 3.38 25 1 25 C3.97 18.73 6.94 12.46 10 6 C6.7 6 3.4 6 0 6 C0 4.02 0 2.04 0 0 Z " fill="#3066A0" transform="translate(196,401)"/>
<path d="M0 0 C3.32878632 2.46040728 4.79301948 3.89610387 5.5625 8 C4.87642343 11.65907504 3.57265686 13.35167676 1 16 C-1.88861709 17.44430855 -3.79647701 17.37688506 -7 17 C-10.32878632 14.53959272 -11.79301948 13.10389613 -12.5625 9 C-11.87642343 5.34092496 -10.57265686 3.64832324 -8 1 C-5.11138291 -0.44430855 -3.20352299 -0.37688506 0 0 Z " fill="#3066A1" transform="translate(1106,300)"/>
<path d="M0 0 C3.32878632 2.46040728 4.79301948 3.89610387 5.5625 8 C4.87642343 11.65907504 3.57265686 13.35167676 1 16 C-1.80915474 17.40457737 -3.88810534 17.24895157 -7 17 C-9.3125 15.9375 -9.3125 15.9375 -11 14 C-12.08711382 10.08639025 -12.4142982 7.93217096 -10.75 4.1875 C-7.54266712 0.17833389 -4.99384393 -0.69913815 0 0 Z " fill="#2F67A0" transform="translate(1414,300)"/>
<path d="M0 0 C2.31 0 4.62 0 7 0 C7.05819424 3.24992446 7.09366116 6.49971435 7.125 9.75 C7.14175781 10.67039062 7.15851563 11.59078125 7.17578125 12.5390625 C7.18222656 13.42851562 7.18867188 14.31796875 7.1953125 15.234375 C7.20578613 16.05131836 7.21625977 16.86826172 7.22705078 17.70996094 C6.97493941 20.25276169 6.33136581 21.83199654 5 24 C1.56760581 26.54251421 -1.86247946 26.15913541 -6 26 C-6.33 24.35 -6.66 22.7 -7 21 C-5.02 20.34 -3.04 19.68 -1 19 C-0.67 12.73 -0.34 6.46 0 0 Z " fill="#31679C" transform="translate(251,356)"/>
<path d="M0 0 C0 7.92 0 15.84 0 24 C-2.31 24 -4.62 24 -7 24 C-7 18.39 -7 12.78 -7 7 C-8.32 7.33 -9.64 7.66 -11 8 C-11.33 6.02 -11.66 4.04 -12 2 C-7.46572345 -0.19843711 -5.56891419 0 0 0 Z " fill="#30669F" transform="translate(138,357)"/>
<path d="M0 0 C1.98 0 3.96 0 6 0 C6.05816623 3.41659491 6.09365195 6.83306205 6.125 10.25 C6.15013672 11.70212891 6.15013672 11.70212891 6.17578125 13.18359375 C6.18222656 14.11816406 6.18867188 15.05273438 6.1953125 16.015625 C6.20578613 16.87446289 6.21625977 17.73330078 6.22705078 18.61816406 C5.97928483 21.21730884 5.39529069 22.80451408 4 25 C1.47524538 26.26237731 -0.31200466 26.09856404 -3.125 26.0625 C-4.03507813 26.05347656 -4.94515625 26.04445313 -5.8828125 26.03515625 C-6.93082031 26.01775391 -6.93082031 26.01775391 -8 26 C-7.67 24.02 -7.34 22.04 -7 20 C-5.02 20 -3.04 20 -1 20 C-0.67 13.4 -0.34 6.8 0 0 Z " fill="#32659D" transform="translate(234,400)"/>
<path d="M0 0 C1.98 0 3.96 0 6 0 C6.11632513 3.41637953 6.18728897 6.83224897 6.25 10.25 C6.30027344 11.70212891 6.30027344 11.70212891 6.3515625 13.18359375 C6.44961328 20.29227539 6.44961328 20.29227539 4.3125 23.65625 C1.54440212 25.26473931 -0.07073747 25.41732961 -3.25 25.25 C-4.14203125 25.21390625 -5.0340625 25.1778125 -5.953125 25.140625 C-6.96632812 25.07101562 -6.96632812 25.07101562 -8 25 C-7.67 23.02 -7.34 21.04 -7 19 C-5.35 19 -3.7 19 -2 19 C-0.3501993 15.70039859 -0.61741639 12.00872116 -0.4375 8.375 C-0.37272461 7.17230469 -0.37272461 7.17230469 -0.30664062 5.9453125 C-0.20048543 3.9637489 -0.09973145 1.98189729 0 0 Z " fill="#32669C" transform="translate(202,313)"/>
<path d="M0 0 C0 7.92 0 15.84 0 24 C-1.98 24 -3.96 24 -6 24 C-6.33 18.39 -6.66 12.78 -7 7 C-8.32 7.33 -9.64 7.66 -11 8 C-11 6.02 -11 4.04 -11 2 C-6.97066275 -0.57877584 -5.48465565 0 0 0 Z " fill="#30669F" transform="translate(207,357)"/>
<path d="M0 0 C1.98 0 3.96 0 6 0 C6 8.58 6 17.16 6 26 C4.02 26 2.04 26 0 26 C0 17.42 0 8.84 0 0 Z " fill="#2F66A1" transform="translate(89,400)"/>
<path d="M0 0 C1.98 0 3.96 0 6 0 C6 8.25 6 16.5 6 25 C4.02 25 2.04 25 0 25 C0 16.75 0 8.5 0 0 Z " fill="#34669A" transform="translate(88,356)"/>
<path d="M0 0 C1.98 0 3.96 0 6 0 C6 8.25 6 16.5 6 25 C4.02 25 2.04 25 0 25 C0 16.75 0 8.5 0 0 Z " fill="#316799" transform="translate(88,313)"/>
<path d="M0 0 C0.99 0.495 0.99 0.495 2 1 C2 1.66 2 2.32 2 3 C-20.44 3 -42.88 3 -66 3 C-66 2.67 -66 2.34 -66 2 C-65.18789566 1.98969254 -64.37579132 1.97938507 -63.53907776 1.96876526 C-55.90163512 1.87096021 -48.26427678 1.76847052 -40.62696934 1.66066074 C-36.70015386 1.60539585 -32.77333099 1.5519703 -28.84643555 1.50268555 C-25.05979158 1.45509439 -21.27324084 1.40275376 -17.48670769 1.34705925 C-16.03898362 1.32661182 -14.59123397 1.30790276 -13.14346504 1.29092598 C-11.12235841 1.26693492 -9.1013339 1.23629925 -7.08032227 1.20532227 C-5.92782486 1.18977798 -4.77532745 1.1742337 -3.58790588 1.15821838 C-1.07029411 1.29117368 -1.07029411 1.29117368 0 0 Z " fill="#40628F" transform="translate(339,257)"/>
<path d="M0 0 C0.66 0.33 1.32 0.66 2 1 C2 1.66 2 2.32 2 3 C-18.79 3 -39.58 3 -61 3 C-61 2.67 -61 2.34 -61 2 C-59.87580406 1.9845388 -59.87580406 1.9845388 -58.72889709 1.96876526 C-51.68009546 1.87095475 -44.63138126 1.76846424 -37.58272648 1.66066074 C-33.9585842 1.60539903 -30.3344339 1.551974 -26.71020508 1.50268555 C-23.21532901 1.45508968 -19.7205538 1.4027489 -16.22579765 1.34705925 C-14.23766177 1.31663587 -12.24945191 1.29118018 -10.26124573 1.26576233 C-8.45949135 1.2358445 -8.45949135 1.2358445 -6.62133789 1.20532227 C-5.55766495 1.18977798 -4.493992 1.1742337 -3.39808655 1.15821838 C-1.04804072 1.26771448 -1.04804072 1.26771448 0 0 Z " fill="#396591" transform="translate(1459,257)"/>
<path d="M0 0 C3.3 0 6.6 0 10 0 C10 1.65 10 3.3 10 5 C6.7 5 3.4 5 0 5 C0 3.35 0 1.7 0 0 Z " fill="#35649C" transform="translate(216,411)"/>
<path d="M0 0 C2.5 0.125 2.5 0.125 3.5 1.125 C3.54080783 3.12458364 3.54254356 5.12545254 3.5 7.125 C-1.25 8.25 -1.25 8.25 -3.5 7.125 C-3.54254356 5.12545254 -3.54080783 3.12458364 -3.5 1.125 C-2.5 0.125 -2.5 0.125 0 0 Z " fill="#306898" transform="translate(168.5,373.875)"/>
<path d="M0 0 C3.3 0 6.6 0 10 0 C10 1.65 10 3.3 10 5 C6.7 5 3.4 5 0 5 C0 3.35 0 1.7 0 0 Z " fill="#32679A" transform="translate(234,369)"/>
<path d="M0 0 C2.5 0.125 2.5 0.125 3.5 1.125 C3.6875 3.5625 3.6875 3.5625 3.5 6.125 C2.84 6.785 2.18 7.445 1.5 8.125 C-1.125 7.75 -1.125 7.75 -3.5 7.125 C-3.54254356 5.12545254 -3.54080783 3.12458364 -3.5 1.125 C-2.5 0.125 -2.5 0.125 0 0 Z " fill="#31669E" transform="translate(102.5,406.875)"/>
<path d="M0 0 C2.5 0.125 2.5 0.125 3.5 1.125 C3.625 3.625 3.625 3.625 3.5 6.125 C2.5 7.125 2.5 7.125 0 7.25 C-2.5 7.125 -2.5 7.125 -3.5 6.125 C-3.625 3.625 -3.625 3.625 -3.5 1.125 C-2.5 0.125 -2.5 0.125 0 0 Z " fill="#31669E" transform="translate(102.5,418.875)"/>
<path d="M0 0 C3.63 0 7.26 0 11 0 C11 1.32 11 2.64 11 4 C7.37 4 3.74 4 0 4 C0 2.68 0 1.36 0 0 Z " fill="#366597" transform="translate(184,326)"/>
<path d="M0 0 C0.38218767 1.65614657 0.71395102 3.32457024 1 5 C0 6 0 6 -2.72265625 6.09765625 C-4.37587891 6.08025391 -4.37587891 6.08025391 -6.0625 6.0625 C-7.16722656 6.05347656 -8.27195312 6.04445313 -9.41015625 6.03515625 C-10.69212891 6.01775391 -10.69212891 6.01775391 -12 6 C-12 5.67 -12 5.34 -12 5 C-10.35 4.67 -8.7 4.34 -7 4 C-6.67 3.01 -6.34 2.02 -6 1 C-3 0 -3 0 0 0 Z " fill="#376597" transform="translate(22,332)"/>
<path d="M0 0 C0.99 0 1.98 0 3 0 C3.66 2.31 4.32 4.62 5 7 C4.34 7.66 3.68 8.32 3 9 C2.01 6.03 1.02 3.06 0 0 Z " fill="#366596" transform="translate(1273,325)"/>
<path d="M0 0 C1.65 1.65 3.3 3.3 5 5 C3.35 5.33 1.7 5.66 0 6 C-1.125 2.25 -1.125 2.25 0 0 Z " fill="#39629E" transform="translate(1227,360)"/>
<path d="M0 0 C1.5 1.3125 1.5 1.3125 3 3 C3 3.99 3 4.98 3 6 C1.68 6 0.36 6 -1 6 C-0.67 4.02 -0.34 2.04 0 0 Z " fill="#3862A4" transform="translate(683,40)"/>
<path d="M0 0 C1.5 1.3125 1.5 1.3125 3 3 C3 3.99 3 4.98 3 6 C1.68 6 0.36 6 -1 6 C-0.67 4.02 -0.34 2.04 0 0 Z " fill="#3862A4" transform="translate(1299,16)"/>
</svg>
