<?xml version="1.0" encoding="UTF-8"?>
<svg version="1.1" xmlns="http://www.w3.org/2000/svg" width="245" height="110">
<path d="M0 0 C2.97 0 5.94 0 9 0 C9 8.25 9 16.5 9 25 C15.27 25.33 21.54 25.66 28 26 C28 17.42 28 8.84 28 0 C30.97 0 33.94 0 37 0 C37.0990914 4.05664947 37.17157106 8.1128277 37.21972656 12.17041016 C37.23980642 13.5497668 37.26707666 14.92903869 37.30175781 16.30810547 C37.35042817 18.29356979 37.37086418 20.27966254 37.390625 22.265625 C37.41157227 23.45961914 37.43251953 24.65361328 37.45410156 25.88378906 C37 29 37 29 35.38769531 31.38989258 C32.23930999 33.51296019 30.18855114 33.50209161 26.40625 33.49609375 C24.49005859 33.49706055 24.49005859 33.49706055 22.53515625 33.49804688 C21.54153076 33.48245728 21.54153076 33.48245728 20.52783203 33.46655273 C18.50600102 33.43758598 16.48679328 33.44595065 14.46484375 33.45898438 C4.86061818 33.39598996 4.86061818 33.39598996 1.61230469 31.90136719 C-0.80508545 29.05057458 -0.45287641 26.83292741 -0.390625 23.14453125 C-0.38496521 22.48289474 -0.37930542 21.82125824 -0.37347412 21.13957214 C-0.35111247 19.02980668 -0.30092371 16.92175048 -0.25 14.8125 C-0.2299344 13.38088394 -0.21168372 11.9492412 -0.1953125 10.51757812 C-0.15125069 7.01116485 -0.08222777 3.50574928 0 0 Z " fill="#DF0D10" transform="translate(101,23)"/>
<path d="M0 0 C5.61527155 0.02716754 9.60791067 2.96282841 14.1953125 5.92578125 C15.07026367 6.47137695 15.94521484 7.01697266 16.84667969 7.57910156 C19.36968142 9.15726394 21.8773081 10.75753501 24.3828125 12.36328125 C25.63065409 13.14979773 26.87923656 13.93514137 28.12890625 14.71875 C30.55798649 16.25074469 32.97650348 17.79586895 35.3828125 19.36328125 C34.77636228 23.30793943 33.99755135 26.70320652 32.3828125 30.36328125 C28.71013378 29.80954077 26.29424961 28.9101195 23.265625 26.7734375 C22.50032471 26.24065186 21.73502441 25.70786621 20.9465332 25.15893555 C20.14175537 24.58699463 19.33697754 24.01505371 18.5078125 23.42578125 C16.81696853 22.24528798 15.12555421 21.06561124 13.43359375 19.88671875 C12.59006348 19.29600586 11.7465332 18.70529297 10.87744141 18.09667969 C7.18386869 15.53019248 3.44418035 13.0355173 -0.3046875 10.55078125 C-0.94583496 10.12482666 -1.58698242 9.69887207 -2.24755859 9.26000977 C-3.70336207 8.29331902 -5.16014759 7.32810738 -6.6171875 6.36328125 C-11.42619949 9.77330794 -15.73021544 13.33768707 -19.83203125 17.5703125 C-24.75851512 22.51835648 -30.23527887 26.92320663 -35.6171875 31.36328125 C-36.9371875 30.70328125 -38.2571875 30.04328125 -39.6171875 29.36328125 C-38.13126051 25.79226316 -36.14975903 23.81785369 -33.2421875 21.30078125 C-29.21217963 17.76794416 -25.23726941 14.19090267 -21.3046875 10.55078125 C-13.84360253 3.64753441 -10.14699554 1.01908271 0 0 Z " fill="#DF0D10" transform="translate(122.6171875,-0.36328125)"/>
<path d="M0 0 C0.99 0 1.98 0 3 0 C3 0.99 3 1.98 3 3 C5.31 3 7.62 3 10 3 C10 4.98 10 6.96 10 9 C10.66 9 11.32 9 12 9 C11.505 4.545 11.505 4.545 11 0 C11.99 0 12.98 0 14 0 C14 0.99 14 1.98 14 3 C16.475 3.495 16.475 3.495 19 4 C19.66 2.68 20.32 1.36 21 0 C21.66 0 22.32 0 23 0 C23.495 1.485 23.495 1.485 24 3 C24.62648437 3 25.25296875 3 25.8984375 3 C35.25 3 35.25 3 40 4 C41.125 7.75 41.125 7.75 40 10 C36.7 10 33.4 10 30 10 C29.505 8.02 29.505 8.02 29 6 C29 7.32 29 8.64 29 10 C12.5 10 -4 10 -21 10 C-21 7.69 -21 5.38 -21 3 C-4.75 3 -4.75 3 0 4 C0 2.68 0 1.36 0 0 Z M-18 5 C-17 9 -17 9 -17 9 Z M-14 5 C-13 9 -13 9 -13 9 Z M-10 5 C-10.33 6.32 -10.66 7.64 -11 9 C-10.34 9 -9.68 9 -9 9 C-9.33 7.68 -9.66 6.36 -10 5 Z M-4 5 C-4 5.99 -4 6.98 -4 8 C-3.34 8 -2.68 8 -2 8 C-2 7.01 -2 6.02 -2 5 C-2.66 5 -3.32 5 -4 5 Z M4 5 C3.67 5.99 3.34 6.98 3 8 C3.66 8 4.32 8 5 8 C4.67 7.01 4.34 6.02 4 5 Z M7 5 C8 9 8 9 8 9 Z M14 5 C15 9 15 9 15 9 Z M36 5 C36.33 6.32 36.66 7.64 37 9 C37.66 8.67 38.32 8.34 39 8 C38.67 7.01 38.34 6.02 38 5 C37.34 5 36.68 5 36 5 Z " fill="#100E0F" transform="translate(170,100)"/>
<path d="M0 0 C1.32 0 2.64 0 4 0 C3.67 2.97 3.34 5.94 3 9 C3.66 9 4.32 9 5 9 C4.67 7.02 4.34 5.04 4 3 C12.66666667 3 21.33333333 3 30 3 C30 4.65 30 6.3 30 8 C30.66 8 31.32 8 32 8 C31.67 6.35 31.34 4.7 31 3 C34 3 37 3 40 3 C40.66 2.67 41.32 2.34 42 2 C42 1.34 42 0.68 42 0 C42.99 0 43.98 0 45 0 C45.495 1.98 45.495 1.98 46 4 C47.65 3.67 49.3 3.34 51 3 C51.66 4.32 52.32 5.64 53 7 C52.34 7.99 51.68 8.98 51 10 C48.35791016 10.34057617 48.35791016 10.34057617 45.0390625 10.29296875 C43.84539062 10.28330078 42.65171875 10.27363281 41.421875 10.26367188 C40.16890625 10.23853516 38.9159375 10.21339844 37.625 10.1875 C36.37976563 10.17396484 35.13453125 10.16042969 33.8515625 10.14648438 C31.53458186 10.12026854 29.21765723 10.08791549 26.90087891 10.04760742 C24.60084092 10.00986063 22.30034771 10 20 10 C20 9.34 20 8.68 20 8 C19.01 8.66 18.02 9.32 17 10 C15.09887695 10.22705078 15.09887695 10.22705078 12.98828125 10.1953125 C12.23095703 10.18886719 11.47363281 10.18242188 10.69335938 10.17578125 C9.90767578 10.15902344 9.12199219 10.14226562 8.3125 10.125 C7.51521484 10.11597656 6.71792969 10.10695313 5.89648438 10.09765625 C3.930861 10.07411585 1.96539225 10.03824547 0 10 C0 6.7 0 3.4 0 0 Z M8 5 C7.67 6.32 7.34 7.64 7 9 C7.66 9 8.32 9 9 9 C8.67 7.68 8.34 6.36 8 5 Z M14 5 C14 5.99 14 6.98 14 8 C14.66 8 15.32 8 16 8 C16 7.01 16 6.02 16 5 C15.34 5 14.68 5 14 5 Z M24 5 C25 7 25 7 25 7 Z M41 5 C40.67 5.99 40.34 6.98 40 8 C40.99 7.67 41.98 7.34 43 7 C43 6.34 43 5.68 43 5 C42.34 5 41.68 5 41 5 Z M48 5 C48 5.99 48 6.98 48 8 C48.66 8 49.32 8 50 8 C50 7.01 50 6.02 50 5 C49.34 5 48.68 5 48 5 Z M34 6 C35 9 35 9 35 9 Z " fill="#100E0F" transform="translate(31,100)"/>
<path d="M0 0 C1.32 0.33 2.64 0.66 4 1 C4 1.99 4 2.98 4 4 C4.78375 3.814375 5.5675 3.62875 6.375 3.4375 C9 3 9 3 11 4 C10.67 5.98 10.34 7.96 10 10 C1.75 10 -6.5 10 -15 10 C-15.66 8.68 -16.32 7.36 -17 6 C-17 7.32 -17 8.64 -17 10 C-21.29 10 -25.58 10 -30 10 C-30.33 8.68 -30.66 7.36 -31 6 C-31 7.32 -31 8.64 -31 10 C-33.64 10 -36.28 10 -39 10 C-39 7.69 -39 5.38 -39 3 C-29.33333333 3 -19.66666667 3 -10 3 C-10 3.99 -10 4.98 -10 6 C-11.32 5.67 -12.64 5.34 -14 5 C-14 5.99 -14 6.98 -14 8 C-12.35 7.67 -10.7 7.34 -9 7 C-8.67 5.68 -8.34 4.36 -8 3 C-6.8553125 3.309375 -6.8553125 3.309375 -5.6875 3.625 C-2.78114056 4.33391203 -2.78114056 4.33391203 0 2 C0 1.34 0 0.68 0 0 Z M-35 5 C-34 9 -34 9 -34 9 Z M-1 5 C-0.67 5.99 -0.34 6.98 0 8 C0.33 7.01 0.66 6.02 1 5 C0.34 5 -0.32 5 -1 5 Z M6 5 C6.33 6.32 6.66 7.64 7 9 C7.66 8.67 8.32 8.34 9 8 C8.67 7.01 8.34 6.02 8 5 C7.34 5 6.68 5 6 5 Z " fill="#100E0F" transform="translate(135,100)"/>
<path d="M0 0 C0.79792969 0.00386719 1.59585938 0.00773437 2.41796875 0.01171875 C3.21589844 0.00785156 4.01382813 0.00398438 4.8359375 0 C10.79136108 0.01011108 10.79136108 0.01011108 11.91796875 1.13671875 C12.01689815 3.30152672 12.04767975 5.4696566 12.04296875 7.63671875 C12.04683594 9.415625 12.04683594 9.415625 12.05078125 11.23046875 C11.91796875 14.13671875 11.91796875 14.13671875 10.91796875 15.13671875 C8.07461827 15.2365885 5.26099712 15.27549756 2.41796875 15.26171875 C1.62003906 15.26558594 0.82210937 15.26945312 0 15.2734375 C-5.95542358 15.26332642 -5.95542358 15.26332642 -7.08203125 14.13671875 C-7.18096065 11.97191078 -7.21174225 9.8037809 -7.20703125 7.63671875 C-7.20960937 6.45078125 -7.2121875 5.26484375 -7.21484375 4.04296875 C-6.97753097 -1.14999334 -4.63187305 0.00786396 0 0 Z M-2.08203125 4.13671875 C-2.08203125 6.44671875 -2.08203125 8.75671875 -2.08203125 11.13671875 C0.88796875 11.13671875 3.85796875 11.13671875 6.91796875 11.13671875 C6.91796875 8.82671875 6.91796875 6.51671875 6.91796875 4.13671875 C3.94796875 4.13671875 0.97796875 4.13671875 -2.08203125 4.13671875 Z " fill="#100E0F" transform="translate(87.08203125,74.86328125)"/>
<path d="M0 0 C1.39456452 0.00667256 2.78911118 0.01863093 4.18359375 0.03515625 C4.89451172 0.03966797 5.60542969 0.04417969 6.33789062 0.04882812 C8.09899388 0.06064761 9.86005411 0.07858362 11.62109375 0.09765625 C12.62109375 4.84765625 12.62109375 4.84765625 12.62109375 7.09765625 C12.64171875 8.27328125 12.66234375 9.44890625 12.68359375 10.66015625 C12.62109375 14.09765625 12.62109375 14.09765625 11.62109375 15.09765625 C8.92454521 15.17085246 6.25417917 15.19008162 3.55859375 15.16015625 C2.42067383 15.15338867 2.42067383 15.15338867 1.25976562 15.14648438 C-0.61982496 15.13466305 -2.49937524 15.11672703 -4.37890625 15.09765625 C-4.37890625 13.44765625 -4.37890625 11.79765625 -4.37890625 10.09765625 C-0.08890625 10.42765625 4.20109375 10.75765625 8.62109375 11.09765625 C8.62109375 10.43765625 8.62109375 9.77765625 8.62109375 9.09765625 C7.76644531 9.10925781 6.91179687 9.12085937 6.03125 9.1328125 C4.92652344 9.14183594 3.82179687 9.15085937 2.68359375 9.16015625 C1.58144531 9.17175781 0.47929687 9.18335937 -0.65625 9.1953125 C-3.37890625 9.09765625 -3.37890625 9.09765625 -4.37890625 8.09765625 C-4.50390625 4.59765625 -4.50390625 4.59765625 -4.37890625 1.09765625 C-3.37890625 0.09765625 -3.37890625 0.09765625 0 0 Z M-0.37890625 4.09765625 C-0.37890625 4.42765625 -0.37890625 4.75765625 -0.37890625 5.09765625 C2.59109375 5.09765625 5.56109375 5.09765625 8.62109375 5.09765625 C8.62109375 4.76765625 8.62109375 4.43765625 8.62109375 4.09765625 C5.65109375 4.09765625 2.68109375 4.09765625 -0.37890625 4.09765625 Z " fill="#100E0F" transform="translate(232.37890625,74.90234375)"/>
<path d="M0 0 C0.79792969 0.00386719 1.59585938 0.00773437 2.41796875 0.01171875 C3.21589844 0.00785156 4.01382813 0.00398438 4.8359375 0 C10.79136108 0.01011108 10.79136108 0.01011108 11.91796875 1.13671875 C12.01689815 3.30152672 12.04767975 5.4696566 12.04296875 7.63671875 C12.04683594 9.415625 12.04683594 9.415625 12.05078125 11.23046875 C11.91796875 14.13671875 11.91796875 14.13671875 10.91796875 15.13671875 C8.07461827 15.2365885 5.26099712 15.27549756 2.41796875 15.26171875 C1.62003906 15.26558594 0.82210937 15.26945312 0 15.2734375 C-5.95542358 15.26332642 -5.95542358 15.26332642 -7.08203125 14.13671875 C-7.18096065 11.97191078 -7.21174225 9.8037809 -7.20703125 7.63671875 C-7.20960938 6.45078125 -7.2121875 5.26484375 -7.21484375 4.04296875 C-6.97753097 -1.14999334 -4.63187305 0.00786396 0 0 Z M-2.08203125 4.13671875 C-2.08203125 6.44671875 -2.08203125 8.75671875 -2.08203125 11.13671875 C1.21796875 11.13671875 4.51796875 11.13671875 7.91796875 11.13671875 C7.91796875 8.82671875 7.91796875 6.51671875 7.91796875 4.13671875 C4.61796875 4.13671875 1.31796875 4.13671875 -2.08203125 4.13671875 Z " fill="#100E0F" transform="translate(159.08203125,74.86328125)"/>
<path d="M0 0 C5 0 5 0 6.58203125 1.53125 C6.98808594 2.1809375 7.39414063 2.830625 7.8125 3.5 C8.23144531 4.1496875 8.65039062 4.799375 9.08203125 5.46875 C9.38496094 5.9740625 9.68789062 6.479375 10 7 C13.42578949 3.82460444 13.42578949 3.82460444 16 0 C17.65 0 19.3 0 21 0 C21 4.95 21 9.9 21 15 C19.35 15 17.7 15 16 15 C15.67 13.02 15.34 11.04 15 9 C13.35 10.65 11.7 12.3 10 14 C8.35 12.02 6.7 10.04 5 8 C4.67 10.31 4.34 12.62 4 15 C2.68 15 1.36 15 0 15 C0 10.05 0 5.1 0 0 Z " fill="#100E0F" transform="translate(126,75)"/>
<path d="M0 0 C6.75 1.125 6.75 1.125 9.875 4.0625 C10.47054687 4.61035156 11.06609375 5.15820312 11.6796875 5.72265625 C12.11539063 6.14417969 12.55109375 6.56570312 13 7 C13.33 4.69 13.66 2.38 14 0 C15.65 0 17.3 0 19 0 C19 4.95 19 9.9 19 15 C13.65796182 15 13.26651394 14.89703018 9.6875 11.5 C8.99011719 10.8503125 8.29273438 10.200625 7.57421875 9.53125 C6.79498047 8.77328125 6.79498047 8.77328125 6 8 C5.67 10.31 5.34 12.62 5 15 C3.35 15 1.7 15 0 15 C0 10.05 0 5.1 0 0 Z " fill="#100E0F" transform="translate(23,75)"/>
<path d="M0 0 C5.28 0 10.56 0 16 0 C16 0.99 16 1.98 16 3 C12.37 3 8.74 3 5 3 C5 3.66 5 4.32 5 5 C6.98 5 8.96 5 11 5 C11 6.32 11 7.64 11 9 C9.02 9 7.04 9 5 9 C5 9.66 5 10.32 5 11 C8.63 11 12.26 11 16 11 C16 12.32 16 13.64 16 15 C10.72 15 5.44 15 0 15 C0 10.05 0 5.1 0 0 Z " fill="#100E0F" transform="translate(196,75)"/>
<path d="M0 0 C0.74765625 0.11859375 1.4953125 0.2371875 2.265625 0.359375 C3.62964543 2.6456762 4.98196774 4.93759249 6.328125 7.234375 C6.91303711 8.21083984 6.91303711 8.21083984 7.50976562 9.20703125 C8.49007033 10.89003225 9.38460932 12.62233699 10.265625 14.359375 C9.935625 15.019375 9.605625 15.679375 9.265625 16.359375 C6.828125 15.984375 6.828125 15.984375 4.265625 15.359375 C3.935625 14.699375 3.605625 14.039375 3.265625 13.359375 C0.625625 13.359375 -2.014375 13.359375 -4.734375 13.359375 C-5.064375 14.019375 -5.394375 14.679375 -5.734375 15.359375 C-8.296875 15.984375 -8.296875 15.984375 -10.734375 16.359375 C-10.03059342 12.54413803 -8.35905808 9.48380455 -6.484375 6.109375 C-5.90171875 5.03171875 -5.3190625 3.9540625 -4.71875 2.84375 C-2.734375 0.359375 -2.734375 0.359375 0 0 Z M-0.734375 5.359375 C-1.724375 6.844375 -1.724375 6.844375 -2.734375 8.359375 C-1.414375 8.029375 -0.094375 7.699375 1.265625 7.359375 C0.605625 6.699375 -0.054375 6.039375 -0.734375 5.359375 Z " fill="#100E0F" transform="translate(66.734375,74.640625)"/>
<path d="M0 0 C1.32 0 2.64 0 4 0 C4 3.63 4 7.26 4 11 C6.97 11 9.94 11 13 11 C13 7.37 13 3.74 13 0 C14.32 0 15.64 0 17 0 C17 4.95 17 9.9 17 15 C14.35409986 15.02684679 11.70846904 15.04676357 9.0625 15.0625 C7.93038086 15.07506836 7.93038086 15.07506836 6.77539062 15.08789062 C4.85005687 15.09652441 2.92464419 15.05224333 1 15 C0 14 0 14 -0.09765625 10.83984375 C-0.08025391 8.90818359 -0.08025391 8.90818359 -0.0625 6.9375 C-0.05347656 5.64714844 -0.04445312 4.35679688 -0.03515625 3.02734375 C-0.02355469 2.02832031 -0.01195312 1.02929688 0 0 Z " fill="#100E0F" transform="translate(0,75)"/>
<path d="M0 0 C2.1875 -0.5 2.1875 -0.5 5 0 C7.01271839 2.48053942 8.51887086 5.17640062 10 8 C10.47179687 7.13375 10.47179687 7.13375 10.953125 6.25 C11.59507812 5.13625 11.59507812 5.13625 12.25 4 C12.66765625 3.2575 13.0853125 2.515 13.515625 1.75 C14.00546875 1.1725 14.4953125 0.595 15 0 C16.32 0 17.64 0 19 0 C17.45454854 5.47932789 14.84456788 10.11429181 12 15 C9.73828125 14.87109375 9.73828125 14.87109375 7 14 C4.98046875 11.34765625 4.98046875 11.34765625 3.1875 8.0625 C2.58292969 6.98097656 1.97835937 5.89945312 1.35546875 4.78515625 C0 2 0 2 0 0 Z " fill="#100E0F" transform="translate(174,75)"/>
<path d="M0 0 C1.65 0 3.3 0 5 0 C5 4.95 5 9.9 5 15 C3.35 15 1.7 15 0 15 C0 10.05 0 5.1 0 0 Z " fill="#100E0F" transform="translate(217,75)"/>
<path d="M0 0 C1.32 0 2.64 0 4 0 C4 4.95 4 9.9 4 15 C2.68 15 1.36 15 0 15 C0 10.05 0 5.1 0 0 Z " fill="#100E0F" transform="translate(116,75)"/>
<path d="M0 0 C1.32 0 2.64 0 4 0 C4 4.95 4 9.9 4 15 C2.68 15 1.36 15 0 15 C0 10.05 0 5.1 0 0 Z " fill="#100E0F" transform="translate(48,75)"/>
<path d="M0 0 C2.625 0.375 2.625 0.375 5 1 C5.625 2.875 5.625 2.875 6 5 C4 7 4 7 1.375 7.125 C0.59125 7.08375 -0.1925 7.0425 -1 7 C-1.625 4.625 -1.625 4.625 -2 2 C-1.34 1.34 -0.68 0.68 0 0 Z M1 2 C1 2.99 1 3.98 1 5 C1.66 5 2.32 5 3 5 C3 4.01 3 3.02 3 2 C2.34 2 1.68 2 1 2 Z " fill="#100E0F" transform="translate(88,103)"/>
<path d="M0 0 C-0.3125 1.9375 -0.3125 1.9375 -1 4 C-3.92824652 4.97608217 -5.95613276 5.08226668 -9 5 C-8.67 3.68 -8.34 2.36 -8 1 C-2.25 0 -2.25 0 0 0 Z " fill="#100E0F" transform="translate(71,69)"/>
<path d="M0 0 C1.32 0 2.64 0 4 0 C3 2 2 4 1 6 C-0.32 6 -1.64 6 -3 6 C-1.125 1.125 -1.125 1.125 0 0 Z " fill="#100E0F" transform="translate(162,68)"/>
<path d="M0 0 C0.99 0 1.98 0 3 0 C3 0.66 3 1.32 3 2 C2.01 2 1.02 2 0 2 C0 1.34 0 0.68 0 0 Z " fill="#100E0F" transform="translate(185,100)"/>
<path d="M0 0 C0.66 0 1.32 0 2 0 C2 0.66 2 1.32 2 2 C1.34 2 0.68 2 0 2 C0 1.34 0 0.68 0 0 Z " fill="#100E0F" transform="translate(201,100)"/>
<path d="M0 0 C0.66 0 1.32 0 2 0 C2 0.66 2 1.32 2 2 C1.34 2 0.68 2 0 2 C0 1.34 0 0.68 0 0 Z " fill="#100E0F" transform="translate(178,100)"/>
<path d="M0 0 C0.66 0 1.32 0 2 0 C2 0.66 2 1.32 2 2 C1.34 2 0.68 2 0 2 C0 1.34 0 0.68 0 0 Z " fill="#100E0F" transform="translate(150,100)"/>
</svg>
